<?xml version="1.0" encoding="utf-8"?>
<svg version="1.1" id="Layer_1" xmlns="http://www.w3.org/2000/svg" xmlns:xlink="http://www.w3.org/1999/xlink" x="0px" y="0px"
	 viewBox="0 0 300 300" style="enable-background:new 0 0 300 300;" xml:space="preserve">
<style type="text/css">
	.st0{fill:#FBB040;}
	.st1{fill:#FEC870;}
	.st2{fill:#7E4D20;}
	.st3{fill:#D78B48;}
	.st4{fill:#B06728;}
	.st5{fill:#A15D27;}
	.st6{fill:#F79C8E;}
	.st7{fill:#E5975A;}
	.st8{fill:#9A5925;}
	.st9{fill:#D17E3C;}
	.st10{fill:#563612;}
	.st11{fill:#57B947;}
	.st12{fill:#44C6EC;}
	.st13{fill:#BF6B2B;}
	.st14{fill:#213036;}
</style>
<g>
	<polygon class="st0" points="122.3,117 113.9,93.6 177.7,40.7 218.5,42.3 195.6,223.9 226.3,226.1 224.4,251.3 129.5,251.2
		123.3,220.8 162.8,221.1 168.6,95.4 	"/>
	<g>
		<path class="st1" d="M123.3,91.6c-3.2,0-3.1,5,0.1,5C126.6,96.6,126.5,91.6,123.3,91.6z"/>
		<path class="st1" d="M142.2,98.7c-3.2,0-3.1,5,0.1,5C145.5,103.7,145.4,98.7,142.2,98.7z"/>
		<path class="st1" d="M149.7,73.6c-3.2,0-3.1,5,0.1,5C153,78.6,152.9,73.6,149.7,73.6z"/>
		<path class="st1" d="M164.4,84.5c-3.2,0-3.1,5,0.1,5C167.7,89.5,167.6,84.5,164.4,84.5z"/>
		<path class="st1" d="M171,56.6c-3.2,0-3.1,5,0.1,5C174.3,61.6,174.2,56.6,171,56.6z"/>
		<path class="st1" d="M192.3,49.1c-3.2,0-3.1,5,0.1,5C195.6,54,195.5,49.1,192.3,49.1z"/>
		<path class="st1" d="M208.4,59c-3.2,0-3.1,5,0.1,5C211.7,64,211.6,59,208.4,59z"/>
		<path class="st1" d="M187.1,68.9c-3.2,0-3.1,5,0.1,5C190.4,73.9,190.3,68.9,187.1,68.9z"/>
		<path class="st1" d="M204.1,86.4c-3.2,0-3.1,5,0.1,5C207.4,91.4,207.3,86.4,204.1,86.4z"/>
		<path class="st1" d="M181.9,94.9c-3.2,0-3.1,5,0.1,5C185.2,99.9,185.1,94.9,181.9,94.9z"/>
		<path class="st1" d="M197.5,108.2c-3.2,0-3.1,5,0.1,5C200.8,113.1,200.7,108.2,197.5,108.2z"/>
		<path class="st1" d="M175.7,123.8c-3.2,0-3.1,5,0.1,5C179,128.7,178.9,123.8,175.7,123.8z"/>
		<path class="st1" d="M192.3,132.7c-3.2,0-3.1,5,0.1,5C195.6,137.7,195.5,132.7,192.3,132.7z"/>
		<path class="st1" d="M193.7,163.5c-3.2,0-3.1,5,0.1,5C197,168.4,196.9,163.5,193.7,163.5z"/>
		<path class="st1" d="M177.6,150.2c-3.2,0-3.1,5,0.1,5C180.9,155.2,180.8,150.2,177.6,150.2z"/>
		<path class="st1" d="M174.8,170.1c-3.2,0-3.1,5,0.1,5C178.1,175.1,178,170.1,174.8,170.1z"/>
		<path class="st1" d="M171.5,191.8c-3.2,0-3.1,5,0.1,5C174.8,196.8,174.7,191.8,171.5,191.8z"/>
		<path class="st1" d="M188.5,180c-3.2,0-3.1,5,0.1,5C191.8,185,191.7,180,188.5,180z"/>
		<path class="st1" d="M190.9,201.8c-3.2,0-3.1,5,0.1,5C194.2,206.7,194.1,201.8,190.9,201.8z"/>
		<path class="st1" d="M178.6,212.2c-3.2,0-3.1,5,0.1,5C181.9,217.1,181.8,212.2,178.6,212.2z"/>
		<path class="st1" d="M162,227.3c-3.2,0-3.1,5,0.1,5C165.3,232.3,165.2,227.3,162,227.3z"/>
		<path class="st1" d="M183.8,228.2c-3.2,0-3.1,5,0.1,5C187.1,233.2,187,228.2,183.8,228.2z"/>
		<path class="st1" d="M172.4,239.1c-3.2,0-3.1,5,0.1,5C175.7,244.1,175.6,239.1,172.4,239.1z"/>
		<path class="st1" d="M203.2,242.9c-3.2,0-3.1,5,0.1,5C206.5,247.9,206.4,242.9,203.2,242.9z"/>
		<path class="st1" d="M220.2,230.1c-3.2,0-3.1,5,0.1,5C223.5,235.1,223.4,230.1,220.2,230.1z"/>
		<path class="st1" d="M153.4,241.7c-0.1-0.1-0.2-0.1-0.2-0.2c-0.5-0.6-1.2-1-2-1c-1.3,0-2.5,1.2-2.4,2.5c0,0.6,0.2,1,0.4,1.5
			c0.5,1,1.6,1.3,2.6,1.4c1.4,0.1,2.5-1.3,2.4-2.5C154.1,242.8,153.9,242.2,153.4,241.7z"/>
		<path class="st1" d="M136.5,230.6c-3.2,0-3.1,5,0.1,5C139.8,235.6,139.7,230.6,136.5,230.6z"/>
		<path class="st1" d="M213.6,43.9c-3.2,0-3.1,5,0.1,5C216.9,48.8,216.8,43.9,213.6,43.9z"/>
		<path class="st1" d="M173.8,72.2c-3.2,0-3.1,5,0.1,5C177.1,77.2,177,72.2,173.8,72.2z"/>
		<path class="st1" d="M181.9,42.9c-3.2,0-3.1,5,0.1,5C185.2,47.9,185.1,42.9,181.9,42.9z"/>
		<path class="st1" d="M201.3,71.3c-3.2,0-3.1,5,0.1,5C204.6,76.2,204.5,71.3,201.3,71.3z"/>
		<path class="st1" d="M190.4,149.3c-3.2,0-3.1,5,0.1,5C193.7,154.2,193.6,149.3,190.4,149.3z"/>
		<path class="st1" d="M183.3,111.5c-3.2,0-3.1,5,0.1,5C186.6,116.4,186.5,111.5,183.3,111.5z"/>
		<path class="st1" d="M148.8,224c-3.2,0-3.1,5,0.1,5C152.1,228.9,152,224,148.8,224z"/>
	</g>
	<g>
		<path class="st2" d="M122.2,148c0,0,7.2,8.4,16.2,1.7c9-6.7,10.9-9,13.8-4.3c2.8,4.6-4.8,16.8-17.2,16.3
			c-12.3-0.5-14.3-1.4-14.3-1.4L122.2,148z"/>
		<path class="st2" d="M131.8,219c0,0,3.4,9.4,0.9,19c-2.5,9.6-7.6,14.2-13.8,13.2c-6.2-1-9.9-6.9-3.2-12.3
			c6.7-5.3,2.1-12.3,2.1-12.3L131.8,219z"/>
		<path class="st2" d="M101.6,102.7c0,0,2.4-12.3,7.5-10.4c5.1,1.9,6.5,5.2,1.7,8.8c-4.8,3.6-6,4.3-6,4.3L101.6,102.7z"/>
		<path class="st2" d="M64.1,99.4c-5.4,4.8,1.5,10.5,8.4,11.3C79.5,111.5,72.7,91.7,64.1,99.4z"/>
		<path class="st3" d="M109.1,95.8c-0.9-0.3-1.9,0.3-2.6,0.7c-1.4,0.9-3.7,3.3-2.3,5c0,0,0,0,0,0c0,0.1,0.1,0.2,0.1,0.3
			c0.9,1.5,2.8,1.1,3.9,0.2c1.2-1,2-2.4,2.1-3.9C110.4,97.1,110.1,96.2,109.1,95.8z"/>
		<path class="st3" d="M75.1,108c-0.1-0.6-0.3-1.3-0.6-2c-0.1-0.4-0.3-0.8-0.5-1.2c-0.2-0.3-0.4-0.7-0.7-1c-1.6-2.3-4-3.9-6.1-1.9
			c-2.7,2.5,1.1,5.9,3.2,7.1c1.2,0.6,2.6,0.9,3.7,0c0.1-0.1,0.2-0.2,0.3-0.4C74.7,108.8,75.2,108.5,75.1,108z"/>
		<path class="st4" d="M91,99.3c-12.2,1.3-19.3,3.5-21.9,19.3c-2.7,15.8-4.6,87.9-0.1,103.6c4.5,15.7,29.7,15.8,47.2,11.2
			c17.5-4.6,23.6-16.1,18.5-48.9c-5.1-32.8-23.3-83.4-30.5-84.4C97.1,99,91,99.3,91,99.3z"/>
		<path class="st5" d="M75.2,130.9c-4.4,2.3-10.9,74.2-2.6,90.4c8.3,16.2,33.1,13.6,32.8,7.8c-0.3-5.8-14.3-5.8-18.3-27.5
			C83.1,180,92.8,121.6,75.2,130.9z"/>
		<path class="st3" d="M98.9,112.9c-6.4,1.6-15.1,9.8-10.7,22.8c4.4,13,38.5,12.9,47.5,0c9-12.9,2.2-29.3-8.4-28.1
			C116.7,108.8,103.1,111.9,98.9,112.9z"/>
		<path class="st6" d="M81.3,116.1c-6.3-3.6-9.5,7.3-5.6,9.8C79.6,128.3,90.2,121.1,81.3,116.1z"/>
		<path class="st3" d="M114.1,148.5c-15.4-0.7-24.9,24.3-20.4,52.3c4.4,28,15.9,29,28.3,25.7C142.6,221.2,130.5,149.3,114.1,148.5z"
			/>
		<path class="st7" d="M95.9,116.2c-5.4,3,1.6,8.6,10.7,6.1c9.1-2.5,25.6-5.6,24.8-10C130.5,107.8,104.8,111.2,95.9,116.2z"/>
		<path class="st8" d="M72,223.9c0,0-1.6,19.4,12.4,27.2c14,7.8,21.5,2.6,22.8-1.8c1.3-4.5-5.1-9.8-10.9-12.2
			c-5.8-2.4-7.8-12.3-8.1-14C87.2,216.8,72.5,214.3,72,223.9z"/>
		<path class="st3" d="M82.7,149.9c0,0-5.3,8.1-1.8,22.1c3.5,14,9,15.8,6.5,21.2c-2.6,5.4-19.4,0.1-17.5-26.2
			C71.7,140.7,82.8,145.8,82.7,149.9z"/>
		<path class="st7" d="M112.3,150.9c-5.7,2.7-0.1,12.7,7.1,35.5c7.2,22.8,14.4,17.8,10-6.7C125,155.2,117.2,148.7,112.3,150.9z"/>
		<path class="st9" d="M90.8,130.3c-3.4,3.5,2.3,15,21.5,12.5c19.2-2.5,23-8.4,22.4-12.7c-0.6-4.3-3.6-5-18.4-0.3
			C101.4,134.5,97,123.7,90.8,130.3z"/>
		<path class="st10" d="M136.8,122.4c-0.1,2.7-2.1,7.1-5.2,4.5c-2.5-2-3.1-6.2-3.4-9.1c0-0.2-0.1-0.4-0.3-0.5
			c-0.3-0.7-1.5-0.5-1.3,0.3c0.3,1.8,0.4,3.7,0.6,5.6c0.1,1.6,0.1,3.4-0.7,4.9c-0.9,1.8-3,2-4.8,1.7c-2.1-0.3-3.4-2.1-4.4-3.8
			c-0.4-0.8-1.7-0.2-1.3,0.5c1.1,1.9,2.4,3.7,4.6,4.4c2,0.6,4.5,0.4,6-1c1.4-1.2,1.7-3.2,1.8-4.9c0.8,1.7,1.9,3.1,3.6,3.9
			c3.7,1.6,6-3.5,6-6.3C138.2,121.7,136.9,121.5,136.8,122.4z"/>
		<path class="st10" d="M92.5,112.9c-1.3-3.1-4.4-6-7.9-4.1c-1.2,0.7-1.8,2.3-2,3.6c-0.1,0.7-0.6,2.5,0.2,3c0.3,0.1,0.6,0.1,0.8-0.1
			l0-0.1c0.2-0.3,0.2-0.5,0.1-0.8c0,0,0-0.1,0-0.1c0-0.2,0-0.3,0-0.5c0-0.4,0.1-0.8,0.1-1.1c0.2-1.1,0.5-2.1,1.4-2.7
			c1-0.7,2.6-0.3,3.6,0.3c1.1,0.7,1.8,1.9,2.3,3.1C91.5,114.2,92.8,113.7,92.5,112.9z"/>
		<path d="M124.9,110.4c-7.9,2.1-10.6,3.5-7.4,7.2c3.2,3.7,11.5,4.3,13.5,0.4C132.9,114,134.2,107.8,124.9,110.4z"/>
		<path class="st11" d="M155.2,138.3c1.9-0.1,7.9-0.3,7-3.3c-0.6-2-3.3-1-5.4,0.2c1.7-3.1,4-6.1,4.9-9.6c0.2-0.9-1.1-1.2-1.3-0.3
			c-0.8,3.5-3.2,6.6-4.9,9.7c-0.2-0.7-0.4-1.5-0.8-2.2c-0.6-1.2-2.1-2-3.2-1c-1,0.9,0,2.6,0.6,3.3c0.5,0.7,1.3,1.6,2.1,2.1
			c-1.7,3.2-3.2,6.5-4.4,9.9c-1.5,4-2.7,8-3.4,12.2c-0.7,4-0.5,7.9-0.1,11.9c0.1,0.9,1.4,0.8,1.4,0c-0.3-4.1-0.5-8,0.2-12.1
			c0.7-4.2,2.1-8.2,3.5-12.2C152.4,143.9,153.7,141.1,155.2,138.3z"/>
		<path class="st12" d="M174.7,118.1c-0.1-0.6-0.6-1-1.2-0.8c-0.3,0.1-0.6,0.4-0.9,0.6c-0.5,0.4-1.1,0.8-1.7,1.2
			c-0.4,0.3-0.9,0.5-1.3,0.8c0.9-1.5,1.6-3.1,2-4.8c0.1-0.2,0-0.4-0.2-0.5c-0.1-0.1-0.2-0.3-0.4-0.3c-0.6-0.1-1,0.4-1.3,0.8
			c-1,1.1-2.1,2.1-3,3.2c-0.2,0.2-0.4,0.4-0.6,0.7c0.3-0.5,0.6-1,0.8-1.5c0.9-1.6,2.2-3.8,1.6-5.7c-0.1-0.3-0.4-0.4-0.7-0.4
			c-0.9,0.3-1.4,1.1-1.9,1.9c-0.8,1.3-1.6,2.6-2.2,4c-0.3,0.6-0.6,1.2-1,1.9c0.3-1.5,0.7-2.9,1.2-4.4c0.4-1.4,1.5-3.3,0.7-4.7
			c-0.1-0.2-0.4-0.3-0.6-0.2c-2,0.6-2.5,3.8-2.9,5.5c-0.1,0.3-0.1,0.7-0.2,1c0-0.5,0-1.1,0.1-1.6c0.2-0.9,0.4-1.7,0.4-2.6
			c0.1-0.7,0.2-1.7-0.5-2.3c-0.2-0.2-0.6-0.2-0.7,0c-0.6,0.8-1,1.6-1.2,2.6c0.1-0.7,0.1-1.5-0.3-2.1c-0.2-0.3-0.6-0.4-0.8-0.1
			c-0.7,0.9-1,1.9-1.2,3c-0.1-0.6-0.7-2-1.5-1.5c-0.6,0.3-0.5,1.3-0.5,2c0,0,0,0,0,0c0,0,0,0,0,0c0,0.1,0,0.2,0,0.3l0,0c0,0,0,0,0,0
			c0,0.1,0,0.3,0,0.3c0.1,2.1,0.1,4,0.8,6c0.7,1.9,1.7,3.7,3.3,5c3.1,2.6,7.5,0.3,10.3-1.7c1.5-1.1,3.6-1.9,4.7-3.5
			C174.4,119.4,174.7,118.7,174.7,118.1z"/>
		<g>
			<path class="st3" d="M74.1,134.6c-0.2,2-0.5,3.9-0.7,5.8c-0.1,0.9,1.2,1.2,1.3,0.3c0.2-2,0.5-3.9,0.7-5.8
				C75.5,134,74.1,133.7,74.1,134.6z"/>
			<path class="st3" d="M77.8,139.6c-0.1,1.5,0,3,0.1,4.5c0,0.9,1.4,0.8,1.4-0.1c-0.1-1.5-0.1-3-0.1-4.5
				C79.2,138.6,77.8,138.7,77.8,139.6z"/>
			<path class="st3" d="M82.9,133.5c0.1,1.3,0,2.6,0,4c0,0.9,1.4,0.8,1.4-0.1c-0.1-1.3,0-2.6,0-4C84.2,132.6,82.9,132.6,82.9,133.5z
				"/>
			<path class="st3" d="M85.6,154c-0.1,1.8-0.1,3.7,0,5.5c0,0.9,1.4,0.8,1.4-0.1c-0.1-1.8,0-3.7,0-5.5C87,153,85.6,153.1,85.6,154z"
				/>
			<path class="st3" d="M90.7,146.6c-0.1-0.9-1.5-0.8-1.4,0.1c0.2,2,0.4,3.9,0.3,5.9c-0.1,0.9,1.3,0.8,1.4-0.1
				C91.1,150.6,90.9,148.6,90.7,146.6z"/>
			<path class="st3" d="M88.4,166.3l0.2,5.2c0,0.9,1.4,0.8,1.4-0.1l-0.2-5.2C89.7,165.3,88.4,165.4,88.4,166.3z"/>
			<path class="st3" d="M84.4,166.2c0-0.9-1.4-0.8-1.4,0.1c0.1,1.6,0.3,3.1,0.5,4.7c0.1,0.9,1.5,0.8,1.4-0.1
				C84.7,169.3,84.5,167.8,84.4,166.2z"/>
			<path class="st3" d="M70.6,145.1c-0.3-0.8-1.6-0.4-1.3,0.4c0.8,2.1,0,4.6,0,6.8c0,0.9,1.4,0.8,1.4-0.1
				C70.7,149.9,71.5,147.3,70.6,145.1z"/>
			<path class="st3" d="M71.1,188.4c0-0.9-1.4-0.8-1.4,0.1c0,2.7,0.5,5.3,0.7,7.9c0,0.9,1.4,0.8,1.4-0.1
				C71.6,193.6,71.1,191,71.1,188.4z"/>
			<path class="st3" d="M76.1,196.4l0.2,5.1c0,0.9,1.4,0.8,1.4-0.1l-0.2-5.1C77.4,195.4,76,195.5,76.1,196.4z"/>
			<path class="st3" d="M75.3,211.2c-0.7-2.5-1.4-5-1.6-7.5c-0.1-0.9-1.4-0.8-1.4,0.1c0.2,2.7,0.9,5.3,1.7,7.9
				C74.2,212.5,75.5,212.1,75.3,211.2z"/>
			<path class="st3" d="M85.3,212c-0.7-1.9-1.5-3.9-1.5-6c0-0.9-1.4-0.8-1.4,0.1c0,2.2,0.9,4.3,1.6,6.3
				C84.3,213.3,85.6,212.9,85.3,212z"/>
			<path class="st3" d="M89.4,196.9c0-0.9-1.4-0.8-1.4,0.1c0.1,2.2,0.5,4.3,0.7,6.5c0.1,0.9,1.5,0.8,1.4-0.1
				C89.9,201.2,89.5,199,89.4,196.9z"/>
			<path class="st3" d="M89.6,177.3c-0.1-0.9-1.4-0.8-1.4,0.1c0.2,2.8,0.9,5.6,1.1,8.5c0.1,0.9,1.4,0.8,1.4-0.1
				C90.5,182.9,89.8,180.1,89.6,177.3z"/>
			<path class="st3" d="M96.5,221.3c-1.8-2.4-2.4-5.5-2.7-8.5c-0.1-0.9-1.5-0.8-1.4,0.1c0.3,3.2,1,6.5,2.9,9.1
				C95.9,222.7,97.1,222,96.5,221.3z"/>
			<path class="st3" d="M96.8,229.6c-1.6-1.7-3.7-3.6-3.9-6.1c-0.1-0.9-1.5-0.8-1.4,0.1c0.3,2.9,2.5,5,4.4,7.1
				C96.5,231.3,97.4,230.3,96.8,229.6z"/>
			<path class="st3" d="M96.3,149.1c-1.2,1.7-1,3.8-0.9,5.8c0,0.9,1.4,0.8,1.4-0.1c-0.1-1.5-0.4-3.5,0.6-4.8
				C97.8,149.4,96.8,148.4,96.3,149.1z"/>
			<path class="st3" d="M71.3,124c-0.2,2.2-0.9,4.3-0.7,6.5c0.1,0.9,1.4,0.8,1.4-0.1c0-0.1,0-0.2,0-0.3c0.1-0.7,0.2-1.4,0.2-2.1
				c0-0.1,0-0.2,0-0.2c0.2-1.1,0.4-2.3,0.6-3.4C72.7,123.4,71.4,123.1,71.3,124z"/>
			<path class="st3" d="M125,150.5c-0.5-1.3-1.3-2.6-2.1-3.7c-0.5-0.7-1.7,0-1.1,0.7c0.7,1.1,1.4,2.2,1.9,3.4
				C124.1,151.7,125.4,151.3,125,150.5z"/>
			<path class="st3" d="M102.9,147.3c-0.9,1-1.4,2.3-1.9,3.5c-0.4,0.8,0.9,1.4,1.2,0.6c0.5-1.1,0.9-2.3,1.7-3.2
				C104.5,147.5,103.5,146.6,102.9,147.3z"/>
			<path class="st4" d="M103.8,158.3c-0.2,1.5-0.6,3-0.8,4.6c-0.1,0.9,1.2,1.2,1.3,0.3c0.2-1.5,0.6-3,0.8-4.6
				C105.3,157.7,103.9,157.4,103.8,158.3z"/>
			<path class="st4" d="M101.1,169.2c-0.3,1.7-0.2,3.4-0.1,5.1c0,0.9,1.4,0.8,1.4-0.1c-0.1-1.6-0.3-3.2,0-4.8
				C102.6,168.6,101.2,168.3,101.1,169.2z"/>
			<path class="st4" d="M107.9,165.2l0.2,4c0,0.9,1.4,0.8,1.4-0.1l-0.2-4C109.3,164.3,107.9,164.4,107.9,165.2z"/>
			<path class="st4" d="M113.6,159.8c-0.5-1.7-0.8-3.5-0.9-5.3c-0.1-0.9-1.4-0.8-1.4,0.1c0.1,1.9,0.5,3.8,1,5.7
				C112.5,161.1,113.8,160.7,113.6,159.8z"/>
			<path class="st4" d="M119,157.3c-0.4-0.8-1.6,0-1.1,0.7c0.9,1.5,1.6,3.2,1.7,5c0.1,0.9,1.4,0.8,1.4-0.1
				C120.8,160.9,120.1,159,119,157.3z"/>
			<path class="st4" d="M117.9,167.8c-0.3-0.8-1.6-0.4-1.3,0.4c0.6,1.8,0.6,3.6,0.7,5.5c0,0.9,1.4,0.8,1.4-0.1
				C118.5,171.7,118.5,169.7,117.9,167.8z"/>
			<path class="st4" d="M124.1,170.7c-0.2-0.9-1.5-0.4-1.3,0.4c0.4,2.2,1.2,4.4,1.3,6.7c0,0.9,1.4,0.8,1.4-0.1
				C125.4,175.3,124.6,173,124.1,170.7z"/>
			<path class="st4" d="M129.6,183.1c0-0.9-1.4-0.8-1.4,0.1c0.1,1.9,0.4,3.7,0.1,5.6c-0.1,0.9,1.2,1.2,1.3,0.3
				C130,187,129.7,185.1,129.6,183.1z"/>
			<path class="st4" d="M125.4,184.8c-0.1-0.9-1.4-0.8-1.4,0.1c0.1,2.4,0.6,4.8,0.1,7.2c-0.2,0.9,1.1,1.2,1.3,0.3
				C126,189.9,125.5,187.4,125.4,184.8z"/>
			<path class="st4" d="M128.5,199c-0.5,2.2-0.7,4.6-1.6,6.7c-0.4,0.8,0.9,1.4,1.2,0.6c1-2.3,1.1-4.7,1.7-7
				C130.1,198.4,128.7,198.1,128.5,199z"/>
			<path class="st4" d="M124.6,200c-0.2,1.8-0.1,3.6-0.8,5.3c-0.4,0.8,0.9,1.4,1.2,0.6c0.8-1.8,0.7-3.7,0.9-5.6
				C126,199.4,124.7,199.1,124.6,200z"/>
			<path class="st4" d="M110.9,172.9c-0.3,2.3-0.5,4.6-0.6,6.9c0,0.9,1.3,0.8,1.4-0.1c0-2.2,0.2-4.3,0.5-6.5
				C112.3,172.3,111,172,110.9,172.9z"/>
			<path class="st4" d="M106.6,178.4c-0.3,2.7-0.2,5.5-0.5,8.2c-0.1,0.9,1.3,1.2,1.3,0.3c0.3-2.7,0.2-5.5,0.5-8.2
				C108,177.9,106.7,177.6,106.6,178.4z"/>
			<path class="st4" d="M98.9,181.4c-0.5,2-0.5,4.1-0.4,6.2c0,0.9,1.4,0.8,1.4-0.1c-0.1-1.9,0-3.9,0.4-5.8
				C100.5,180.8,99.1,180.5,98.9,181.4z"/>
			<path class="st4" d="M97.6,168.9l-0.6,6c-0.1,0.9,1.3,1.2,1.3,0.3l0.6-6C99.1,168.4,97.7,168.1,97.6,168.9z"/>
			<path class="st4" d="M101.4,203.1c-0.8-1.9-1.6-3.7-2-5.7c-0.2-0.9-1.5-0.4-1.3,0.4c0.4,2,1.2,3.9,2,5.7
				C100.5,204.3,101.8,203.9,101.4,203.1z"/>
			<path class="st4" d="M102.8,194.3c0.1-0.9-1.2-1.2-1.3-0.3c-0.3,2.1,0.5,4,0.8,6.1c0.1,0.9,1.5,0.8,1.4-0.1
				C103.4,198.1,102.6,196.2,102.8,194.3z"/>
			<path class="st4" d="M107.2,215.5c-0.8-1.9-1.6-3.7-2.4-5.6c-0.4-0.8-1.7-0.4-1.3,0.4c0.8,1.8,1.6,3.7,2.4,5.6
				C106.3,216.8,107.6,216.4,107.2,215.5z"/>
			<path class="st4" d="M103.6,216.1c-1.7-1.9-3.4-4.2-3.4-6.9c0-0.9-1.4-0.8-1.4,0.1c0,3.1,1.9,5.6,3.8,7.8
				C103.2,217.8,104.1,216.8,103.6,216.1z"/>
			<path class="st4" d="M114,222.2c-1.2-0.1-2.5-0.7-3.4-1.5c-0.7-0.6-1.6,0.4-0.9,1c1.2,1.1,2.8,1.7,4.4,1.8
				C114.9,223.7,114.9,222.3,114,222.2z"/>
			<path class="st4" d="M110.4,204.8c-1.1-2.4-1.3-5-1.9-7.6c-0.2-0.9-1.5-0.4-1.3,0.4c0.6,2.5,0.8,5.2,1.9,7.6
				C109.5,206,110.8,205.6,110.4,204.8z"/>
			<path class="st4" d="M113.1,185.5c-0.1-0.9-1.5-0.8-1.4,0.1c0.3,2,0.7,4,0.9,6.1c0.1,0.9,1.4,0.8,1.4-0.1
				C113.8,189.6,113.4,187.6,113.1,185.5z"/>
			<path class="st4" d="M117,179.4c-0.2,2.2,0.2,4.5-0.1,6.7c-0.1,0.9,1.2,1.2,1.3,0.3c0.3-2.2-0.1-4.4,0.1-6.7
				C118.4,178.8,117.1,178.5,117,179.4z"/>
			<path class="st4" d="M118.5,194.8c0,2.3,0,4.6-0.8,6.8c-0.3,0.8,1,1.1,1.3,0.3c0.8-2.3,0.8-4.7,0.8-7.2
				C119.9,193.8,118.5,193.9,118.5,194.8z"/>
			<path class="st4" d="M113.8,197.1l0.3,6.5c0,0.9,1.4,0.8,1.4-0.1l-0.3-6.5C115.1,196.2,113.8,196.3,113.8,197.1z"/>
			<path class="st4" d="M115.9,215.5c-1.2-1.2-2.5-2.4-3.3-4c-0.4-0.8-1.6,0-1.1,0.7c0.9,1.6,2.3,2.9,3.6,4.2
				C115.6,217.2,116.5,216.2,115.9,215.5z"/>
			<path class="st4" d="M119.1,207.5l0.3,7.1c0,0.9,1.4,0.8,1.4-0.1l-0.3-7.1C120.5,206.6,119.1,206.6,119.1,207.5z"/>
			<path class="st4" d="M123.4,216.9c-0.5,1.7-1.7,3-2.6,4.5c-0.4,0.8,0.8,1.4,1.2,0.6c0.9-1.6,2.1-3,2.7-4.8
				C125,216.4,123.7,216.1,123.4,216.9z"/>
			<path class="st4" d="M128.5,210.8c-0.1,1.6-0.6,3.1-1.3,4.5c-0.4,0.8,0.8,1.4,1.2,0.6c0.8-1.6,1.3-3.4,1.4-5.2
				C129.9,209.8,128.6,209.9,128.5,210.8z"/>
			<path class="st4" d="M96.3,136.4c-1.7-1.1-3-2.9-3.5-5c-0.2-0.9-1.5-0.4-1.3,0.4c0.5,2.4,2.1,4.5,4.1,5.7
				C96.4,138.1,97,136.9,96.3,136.4z"/>
			<path class="st4" d="M103,135.5c-1.6-0.7-3.4-1.8-3.8-3.7c-0.2-0.9-1.5-0.4-1.3,0.4c0.5,2.2,2.6,3.6,4.5,4.5
				C103.2,137.1,103.8,135.9,103,135.5z"/>
			<path class="st4" d="M107.5,139.7c-1.1-0.1-2.3-0.2-3.4-0.6c-0.8-0.3-1.4,0.9-0.6,1.2c1.3,0.5,2.7,0.6,4.1,0.8
				C108.4,141.1,108.3,139.8,107.5,139.7z"/>
			<path class="st4" d="M109.4,127.9c-1.8,0-3.9,0.2-5.3-1.1c-0.6-0.6-1.6,0.3-1,1c1.7,1.7,4,1.5,6.2,1.5
				C110.3,129.3,110.3,127.9,109.4,127.9z"/>
			<path class="st4" d="M118.8,135.7c-1.5,0.6-3.1,0.8-4.7,0.6c-0.9-0.1-1.2,1.2-0.3,1.3c1.9,0.2,3.7,0,5.4-0.7
				C120,136.7,119.6,135.4,118.8,135.7z"/>
		</g>
		<path class="st13" d="M85.5,102.6c-10.8,3.4-10.7,5.7-1.2,5c9.5-0.8,13.5-2.5,17.7,1.1c4.2,3.6,7.4-5,0.9-6.5
			C96.5,100.6,90.3,101.1,85.5,102.6z"/>
		<path class="st10" d="M85.4,195.6c-0.1-0.1-0.2-0.3-0.3-0.4c-0.1-0.1-0.2-0.3-0.3-0.4c-0.1-0.3-0.4-0.4-0.6-0.7
			c-0.2-0.3-0.5-0.6-0.9-0.4c-0.3,0.1-0.6,0.5-0.4,0.9c0.2,0.4,0.5,0.7,0.8,1.1c0.2,0.3,0.4,0.5,0.6,0.8c0.2,0.3,0.5,0.6,0.8,0.7
			c0.6,0.1,0.9-0.3,0.9-0.8C86,195.8,85.7,195.6,85.4,195.6z"/>
		<path class="st10" d="M88.2,193.7C88.2,193.7,88.1,193.7,88.2,193.7c-0.1-0.1-0.2-0.1-0.2-0.1c-0.1-0.1-0.3-0.3-0.4-0.4
			c-0.2-0.3-0.5-0.5-0.7-0.8c-0.2-0.3-0.7-0.2-1,0c-0.3,0.3-0.2,0.7,0,1c0.5,0.5,1,1.2,1.6,1.5C88.3,195.3,89,194.1,88.2,193.7z"/>
		<path class="st10" d="M89.8,191.6c-0.6-0.7-1.5-1-2.3-1.5c-0.8-0.4-1.4,0.8-0.6,1.2c0.6,0.3,1.4,0.5,1.8,1
			c0.2,0.3,0.6,0.4,0.9,0.2C89.9,192.4,90.1,191.9,89.8,191.6z"/>
		<path class="st10" d="M152.4,146.7c-0.2-1.4-1.5-1.6-2.7-1.8c-0.9-0.2-1.2,1.1-0.3,1.3c0.3,0.1,1.6,0.2,1.6,0.5
			c0.1,0.4,0.3,0.7,0.7,0.7C152.1,147.4,152.5,147.1,152.4,146.7z"/>
		<path class="st10" d="M152.4,148.3c-0.6-0.8-1.8-0.9-2.7-0.7c-0.4,0.1-0.7,0.3-0.7,0.7c0,0.3,0.3,0.7,0.7,0.7
			c0.6-0.1,1.3-0.1,1.7,0.3c0.2,0.3,0.7,0.2,1,0C152.7,149,152.7,148.6,152.4,148.3z"/>
		<path class="st10" d="M148.5,140.7c-0.8,1-1.3,2.1-1.1,3.4c0.2,0.9,1.5,0.5,1.3-0.4c-0.1-0.7,0.3-1.4,0.8-2
			C150,140.9,149,140,148.5,140.7z"/>
		<path class="st10" d="M104.4,253.6c-0.3-0.5-0.5-1.1-0.9-1.6c-0.5-0.6-1.2-1-2-0.9c-0.9,0.1-0.8,1.4,0.1,1.4
			c1-0.1,1.3,1.1,1.8,1.8C103.7,255.1,104.8,254.4,104.4,253.6z"/>
		<path class="st10" d="M107.8,250.9c-0.6-1.2-1-2.4-2.5-2.8c-0.9-0.2-1.2,1.1-0.3,1.3c1,0.3,1.3,1.4,1.7,2.3
			C107,252.4,108.1,251.7,107.8,250.9z"/>
		<path class="st10" d="M108,246.2c-1-0.5-1.9-1-3-1.1c-0.9-0.1-0.8,1.3,0.1,1.4c0.9,0.1,1.6,0.5,2.3,0.9
			C108.2,247.8,108.8,246.6,108,246.2z"/>
		<path class="st10" d="M113.8,245.1c-1.2,1-2.2,2.1-2.6,3.6c-0.2,0.9,1.1,1.1,1.3,0.3c0.3-1.1,1.1-2,2-2.7
			C115.2,245.7,114.5,244.5,113.8,245.1z"/>
		<path class="st10" d="M116.1,247.3c-1.1,1-1.8,2.3-2.1,3.8c-0.1,0.9,1.2,1.2,1.3,0.3c0.2-1.3,0.8-2.3,1.8-3.2
			C117.8,247.7,116.8,246.7,116.1,247.3z"/>
		<path class="st10" d="M119.7,248.7c-0.6,1-0.8,2.2-1,3.3c-0.2,0.9,1.2,1.2,1.3,0.3c0.2-1,0.4-2.1,0.9-3
			C121.4,248.6,120.1,248,119.7,248.7z"/>
		<path class="st14" d="M125.3,111c-5.3,1.5-9.1,2.7-7.8,4.9c1.3,2.2,7.8,3.5,8.2,1c0.4-2.4,1.7-3.6,3-4.4
			C130,111.8,128.1,110.2,125.3,111z"/>
		<path class="st10" d="M109.2,108.6c0.2,0.1-0.3-0.8-0.4-1c-0.3-0.6-0.6-1-1.1-1.4c-0.8-0.8-2.2-1.4-3.3-1.1
			c-2.3,0.6-3.6,3.2-3.5,5.4c0,0.9,1.4,0.8,1.4-0.1c-0.1-1.9,1.4-4.8,3.7-3.9c1.6,0.6,1.4,2.4,2.6,3.2
			C109.3,110.3,110,109.1,109.2,108.6z"/>
	</g>
</g>
</svg>
