<svg xmlns="http://www.w3.org/2000/svg" width="670" height="150" viewbox="0 0 670 150"><g id="g_109"><g fill="#EFEAEA" id="g_110"><path d="M288.042 113.876h-53.097V31.483H584l74 .017.193 37.708v64.167l-74.193.027v-8.235h-25.25v8.244l-240.81.09v-19.624zM208.727 74.45V31.483H77.875v20.595H45.25V31.483H12.658V133.02H45.5v-7.164H74v7.164h134.888V74.45" id="path_0"></path></g><g id="g_111"><path fill="#D8ECE9" d="M13.813 99.746h30.522v32.18H13.813z" id="path_1"></path><path fill="#BEC5D1" d="M46.167 53.396v71.187h29.416v6.917h131.834V50.583h-35.5v-17.5H119.5v17.5H79.23v2.813z" id="path_2"></path><path fill="#D8ECE9" d="M585.667 70.71h71.166v61.124h-71.166zM585.667 33.375h71.166v35.792h-71.166z" id="path_3"></path><path fill="#F7E8AE" d="M13.75 33.125h30.375V65.5H13.75zM78.958 32.167h38.167V48.25H78.958zM174.25 32.583h33.25V48.25h-33.25zM298.5 32.625h47.625v15.75H298.5zM396.875 32.625h44.375V48.25h-44.375zM492.375 32.5h33.75v15.75h-33.75zM556.625 31.917h26.25v16.25h-26.25z" id="path_4"></path><path fill="#BEC5D1" d="M236.375 32.875H296.5v17.66h51.75v-17.66h46.5v17.66h48.5v-17.66h46.875v17.66h38.25v-17.66h26v99.208h-235v-19.875h-83z" id="path_5"></path><path fill="#F7E8AE" d="M252.5 64.5h65.167v24.667H252.5zM556.833 49.917H582.5V63.75h-25.667z" id="path_6"></path></g><g stroke="#333" stroke-width="1.5" stroke-miterlimit="10" fill="none" id="g_112"><path d="M208.888 87.063v45.955H74v-7.225h-2.625M276.354 113.876h-41.41v-26.75M290.25 113.876h-4.437M299.73 113.876h18.21V133.5l240.81-.09V125h2.104M234.945 77.625V31.483h423.248v101.892l-74.193.027v-8.068h-2.166M12.658 94.406v38.612H45.5v-7.164h2.417M12.658 80.47v4.405M208.727 77.688V31.483H77.875v20.595H45.25V31.483H12.658v39.455M57.417 125.834h4.437M570.313 125.167h2.042" id="path_7"></path></g><g stroke="#333" stroke-miterlimit="10" fill="none" id="g_113"><path d="M35.25 66.525H12.917M45.008 69.048v-2.523h-5.216M45.008 50.625v15.9M173.06 43.042v-11.56M208.727 49.237H173.06v-1.612M431.563 49.237h10.687V32M395.88 31.483v17.754h31.037M557.52 49h-1.782V31.483M577.542 49h-15.334M583.938 49h-1.855M525.22 49.237h1.976V31.483M491.473 31.483v17.754h29.152M110.625 49.237H77.75M118.167 31.483v17.754h-2.917M15.292 98.875H12.75M45.25 73.75v25.125H19.958M323.667 49.237M333.23 49.237H347V32M297.5 31.483v17.754h31.084M45.25 126.666v-27.79M41.86 125.854M555.738 49.5v14.75" id="path_8"></path></g><g id="g_114"><path stroke="#333" stroke-width=".5" stroke-miterlimit="10" fill="none" d="M314.24 76.08H253.3V65.3h63.514v2.735H255.23M314.24 81.064H253.3v7.56h63.515V74.148H255.23" id="path_9"></path><path fill="#433F3E" stroke="#fff" stroke-miterlimit="10" d="M291.224 84.42H279.36c-.865 0-1.568-.703-1.568-1.568V70.988c0-.865.704-1.57 1.567-1.57h11.864c.864 0 1.567.705 1.567 1.57v11.864c0 .865-.702 1.57-1.566 1.57z" id="path_10"></path><g fill="#fff" id="g_115"><circle cx="284.204" cy="72.671" r=".799" id="circle_99"></circle><path d="M289.842 73.467h-2.758l-1.947 1.945v-.767c0-.507-.412-.918-.918-.918-.508 0-.92.412-.92.918v2.604l-.937.937H280.8c-.98 0-1.78.797-1.78 1.78 0 .98.8 1.78 1.78 1.78l3.028-.004 4.72-4.716h1.293c.982 0 1.78-.798 1.78-1.78s-.797-1.78-1.778-1.78zm0 3.04h-1.51l-4.72 4.716-2.81.003c-.697 0-1.262-.565-1.262-1.26 0-.693.564-1.258 1.26-1.258h1.777l4.72-4.72h2.544c.694 0 1.26.564 1.26 1.26 0 .693-.565 1.258-1.258 1.258z" id="path_11"></path></g><path fill="#433F3E" d="M35.376 50.482c0 .704-.575 1.28-1.278 1.28h-9.792c-.704 0-1.28-.576-1.28-1.28v-9.79c0-.705.576-1.28 1.28-1.28h9.792c.703 0 1.278.575 1.278 1.28v9.79z" id="path_12"></path><g fill="#fff" id="g_116"><path d="M29.237 50.14v-9.106h-.35v9.106h.35zm-2.863-7.644c.4 0 .73-.333.73-.74 0-.395-.33-.722-.73-.722-.4 0-.73.328-.73.723 0 .407.33.74.73.74zm1.69 1.368c0-.646-.61-1.15-1.36-1.15h-.634c-.75 0-1.36.505-1.36 1.15v2.413c0 .15.126.277.276.277.157 0 .273-.128.273-.277V43.95c0-.07.066-.146.155-.146.073 0 .135.076.135.146V49.807c0 .18.156.334.35.334.194 0 .34-.152.34-.333V46.35c0-.086.065-.155.146-.155.083 0 .155.068.155.155v3.457c0 .18.145.334.346.334.185 0 .344-.152.344-.333V43.95c0-.07.06-.146.135-.146.08 0 .145.076.145.146v2.328c0 .15.126.277.278.277.153 0 .276-.128.276-.277v-2.414zM31.73 42.496c.405 0 .736-.333.736-.74 0-.395-.33-.722-.736-.722-.4 0-.726.328-.726.723 0 .407.328.74.726.74zM33.674 45.407l-.525-1.732c-.164-.547-.574-.93-1.132-.95H31.452c-.555.02-.967.403-1.13.95l-.525 1.732s-.017.055-.017.085c0 .156.125.275.288.275.124 0 .223-.07.264-.197l.45-1.515c.02-.062.066-.105.14-.105.08 0 .14.062.14.133 0 .015 0 .042-.005.06l-.944 3.08c-.034.116.032.21.15.21h.684v2.388c0 .185.147.32.32.32.186 0 .324-.135.324-.32v-2.388h.291v2.39c0 .183.138.32.324.32.173 0 .32-.137.32-.32v-2.39h.685c.117 0 .183-.093.15-.208l-.945-3.08c-.005-.02-.005-.046-.005-.06 0-.072.06-.134.14-.134.074 0 .12.043.14.105l.45 1.515c.042.127.14.197.262.197.163 0 .29-.12.29-.275 0-.03-.018-.085-.018-.085z" id="path_13"></path></g><path fill="#433F3E" d="M196.596 44.955c0 .703-.575 1.28-1.278 1.28h-9.792c-.703 0-1.28-.577-1.28-1.28v-9.79c0-.706.577-1.28 1.28-1.28h9.792c.703 0 1.278.574 1.278 1.28v9.79z" id="path_14"></path><g fill="#fff" id="g_117"><path d="M187.343 39.617h.024c.16 0 .297-.123.31-.285l.087-1.136.596-.43v1.647c0 .083.02.16.058.23l-.667 2.767c-.048.2.075.4.274.45.03.006.06.01.088.01.168 0 .32-.114.36-.285l.638-2.638.724.346-.06.895c-.015.205.142.383.347.395l.024.002c.195 0 .358-.152.37-.35l.078-1.146c.01-.153-.075-.294-.212-.36l-1.028-.49v-1.09l.36.43c.05.06.123.1.202.108l1.094.124.035.002c.155 0 .29-.117.308-.275.02-.17-.103-.325-.272-.344l-.97-.11-.79-.943c-.024-.06-.06-.113-.103-.16-.042-.16-.187-.28-.36-.28-.128 0-.24.067-.31.166l-1.26.908c-.074.053-.12.137-.127.228l-.1 1.278c-.013.17.115.32.285.333z" id="path_15"></path><circle cx="189.179" cy="35.875" r=".77" id="circle_100"></circle></g><path fill="#fff" d="M186.048 44.195h1.592v-1.27h1.582V41.64h1.606v-1.25h1.597v-1.243h2.37v.812h-1.576v1.247h-1.6v1.27h-1.594v1.264h-1.6v1.276h-2.38v-.82z" id="path_16"></path><path fill="#433F3E" d="M327.268 45.566c0 .703-.575 1.28-1.278 1.28h-9.792c-.703 0-1.28-.577-1.28-1.28v-9.79c0-.706.577-1.28 1.28-1.28h9.792c.703 0 1.278.574 1.278 1.28v9.79z" id="path_17"></path><g fill="#fff" id="g_118"><path d="M318.015 40.23h.024c.16 0 .296-.124.308-.286l.088-1.136.596-.43v1.647c0 .083.02.16.058.23l-.667 2.767c-.05.2.074.4.273.45.03.006.06.01.088.01.168 0 .32-.114.36-.285l.638-2.638.724.345-.06.895c-.015.205.142.383.347.395l.023.002c.195 0 .358-.152.37-.35l.078-1.146c.01-.15-.075-.292-.212-.358l-1.028-.49v-1.088l.36.43c.05.06.123.1.202.108l1.094.124.035.002c.155 0 .29-.117.308-.275.02-.17-.104-.324-.273-.343l-.97-.11-.79-.943c-.024-.06-.06-.113-.103-.16-.042-.16-.187-.28-.36-.28-.128 0-.24.067-.31.166l-1.26.91c-.074.052-.12.136-.127.227l-.1 1.278c-.013.168.115.317.285.33z" id="path_18"></path><circle cx="319.851" cy="36.486" r=".77" id="circle_101"></circle></g><path fill="#fff" d="M316.72 44.807h1.592v-1.27h1.582v-1.284h1.606V41h1.597v-1.242h2.37v.812h-1.576v1.248h-1.597v1.27h-1.595v1.264h-1.6v1.275h-2.38v-.82z" id="path_19"></path><path fill="#433F3E" d="M103.975 44.955c0 .703-.575 1.28-1.278 1.28h-9.792c-.703 0-1.28-.577-1.28-1.28v-9.79c0-.706.577-1.28 1.28-1.28h9.792c.703 0 1.278.574 1.278 1.28v9.79z" id="path_20"></path><g fill="#fff" id="g_119"><path d="M94.722 39.617h.024c.16 0 .297-.123.31-.285l.087-1.136.596-.43v1.647c0 .083.02.16.057.23l-.667 2.767c-.05.2.074.4.273.45.03.006.06.01.088.01.17 0 .32-.114.362-.285l.637-2.638.723.346-.06.895c-.015.205.142.383.347.395l.023.002c.195 0 .358-.152.37-.35l.078-1.146c.01-.153-.074-.294-.21-.36l-1.03-.49v-1.09l.36.43c.05.06.124.1.203.108l1.094.124.035.002c.155 0 .29-.117.308-.275.02-.17-.104-.325-.273-.344l-.97-.11-.79-.943c-.024-.06-.06-.113-.103-.16-.042-.16-.187-.28-.36-.28-.128 0-.24.067-.31.166l-1.26.908c-.074.053-.12.137-.127.228l-.1 1.278c-.013.17.115.32.285.333z" id="path_21"></path><circle cx="96.558" cy="35.875" r=".77" id="circle_102"></circle></g><path fill="#fff" d="M93.427 44.195h1.592v-1.27h1.58V41.64h1.607v-1.25h1.597v-1.243h2.37v.812h-1.576v1.247H99v1.27h-1.595v1.264h-1.6v1.276h-2.38v-.82z" id="path_22"></path><path fill="#433F3E" d="M425.07 44.955c0 .703-.576 1.28-1.28 1.28H414c-.704 0-1.28-.577-1.28-1.28v-9.79c0-.706.576-1.28 1.28-1.28h9.79c.704 0 1.28.574 1.28 1.28v9.79z" id="path_23"></path><g fill="#fff" id="g_120"><path d="M415.816 39.617h.024c.16 0 .297-.123.31-.285l.087-1.136.596-.43v1.647c0 .083.02.16.058.23l-.666 2.767c-.05.2.074.4.273.45.03.006.06.01.088.01.168 0 .32-.114.36-.285l.638-2.638.724.346-.06.895c-.015.205.142.383.347.395l.023.002c.195 0 .358-.152.37-.35l.078-1.146c.01-.153-.075-.294-.212-.36l-1.028-.49v-1.09l.36.43c.05.06.123.1.202.108l1.094.124.036.002c.155 0 .29-.117.308-.275.02-.17-.104-.325-.273-.344l-.97-.11-.79-.943c-.023-.06-.06-.113-.102-.16-.042-.16-.187-.28-.36-.28-.128 0-.24.067-.31.166l-1.26.908c-.074.053-.12.137-.127.228l-.1 1.278c-.01.17.116.32.286.333z" id="path_24"></path><circle cx="417.652" cy="35.875" r=".77" id="circle_103"></circle></g><path fill="#fff" d="M414.52 44.195h1.593v-1.27h1.582V41.64h1.606v-1.25h1.598v-1.243h2.37v.812h-1.576v1.247h-1.598v1.27H418.5v1.264h-1.6v1.276h-2.38v-.82z" id="path_25"></path><path fill="#433F3E" d="M515.268 44.955c0 .703-.575 1.28-1.278 1.28h-9.792c-.703 0-1.28-.577-1.28-1.28v-9.79c0-.706.577-1.28 1.28-1.28h9.792c.703 0 1.278.574 1.278 1.28v9.79z" id="path_26"></path><g fill="#fff" id="g_121"><path d="M506.015 39.617h.024c.16 0 .296-.123.308-.285l.088-1.136.596-.43v1.647c0 .083.02.16.058.23l-.667 2.767c-.05.2.074.4.273.45.03.006.06.01.088.01.168 0 .32-.114.36-.285l.638-2.638.724.346-.06.895c-.015.205.142.383.347.395l.023.002c.195 0 .358-.152.37-.35l.078-1.146c.01-.153-.075-.294-.212-.36l-1.028-.49v-1.09l.36.43c.05.06.123.1.202.108l1.094.124.035.002c.155 0 .29-.117.308-.275.02-.17-.104-.325-.273-.344l-.97-.11-.79-.943c-.024-.06-.06-.113-.103-.16-.042-.16-.187-.28-.36-.28-.128 0-.24.067-.31.166l-1.26.908c-.074.053-.12.137-.127.228l-.1 1.278c-.013.17.115.32.285.333z" id="path_27"></path><circle cx="507.851" cy="35.875" r=".77" id="circle_104"></circle></g><path fill="#fff" d="M504.72 44.195h1.592v-1.27h1.582V41.64h1.606v-1.25h1.597v-1.243h2.37v.812h-1.576v1.247h-1.597v1.27h-1.595v1.264h-1.6v1.276h-2.38v-.82z" id="path_28"></path><path fill="#433F3E" d="M576.475 44.955c0 .703-.575 1.28-1.278 1.28h-9.792c-.703 0-1.28-.577-1.28-1.28v-9.79c0-.706.577-1.28 1.28-1.28h9.792c.703 0 1.278.574 1.278 1.28v9.79z" id="path_29"></path><g fill="#fff" id="g_122"><path d="M567.222 39.617h.024c.16 0 .297-.123.31-.285l.087-1.136.596-.43v1.647c0 .083.02.16.057.23l-.667 2.767c-.05.2.074.4.273.45.03.006.06.01.088.01.17 0 .32-.114.362-.285l.637-2.638.723.346-.06.895c-.015.205.142.383.347.395l.023.002c.195 0 .358-.152.37-.35l.078-1.146c.01-.153-.074-.294-.21-.36l-1.03-.49v-1.09l.36.43c.05.06.124.1.203.108l1.094.124.035.002c.155 0 .29-.117.308-.275.02-.17-.104-.325-.273-.344l-.97-.11-.79-.943c-.024-.06-.06-.113-.103-.16-.042-.16-.187-.28-.36-.28-.128 0-.24.067-.31.166l-1.26.908c-.074.053-.12.137-.127.228l-.1 1.278c-.013.17.115.32.285.333z" id="path_30"></path><circle cx="569.058" cy="35.875" r=".77" id="circle_105"></circle></g><path fill="#fff" d="M565.927 44.195h1.592v-1.27h1.58V41.64h1.607v-1.25h1.597v-1.243h2.37v.812h-1.576v1.247H571.5v1.27h-1.595v1.264h-1.6v1.276h-2.38v-.82z" id="path_31"></path><path fill="#433F3E" d="M576.51 61.73c0 .704-.574 1.28-1.278 1.28h-9.792c-.702 0-1.276-.576-1.276-1.28v-9.792c0-.704.574-1.28 1.276-1.28h9.792c.704 0 1.28.577 1.28 1.28v9.792z" id="path_32"></path><path fill="#fff" d="M573.642 54.884h-6.605c-.174 0-.312.137-.312.31v6.086c0 .17.138.31.312.31h6.605c.17 0 .307-.14.307-.31v-6.087c-.002-.172-.14-.31-.308-.31zm-.178 6.21h-6.257v-5.717h6.257v5.718z" id="path_33"></path><circle fill="#fff" cx="568.55" cy="56.31" r=".436" id="circle_106"></circle><path fill="#fff" d="M568.55 56.883c-.453 0-.67.304-.67.69v1.348c0 .09.074.167.167.167.092 0 .17.004.17.004v1.5c0 .113.093.206.207.206h.253c.11 0 .206-.093.206-.205v-1.5s.076-.003.168-.003c.095 0 .17-.077.17-.166v-1.347c0-.386-.222-.69-.67-.69z" id="path_34"></path><circle fill="#fff" cx="570.337" cy="56.31" r=".436" id="circle_107"></circle><path fill="#fff" d="M570.337 56.883c-.452 0-.67.304-.67.69v1.348c0 .09.076.167.168.167s.17.004.17.004v1.5c0 .113.093.206.206.206h.253c.112 0 .204-.093.204-.205v-1.5s.08-.003.172-.003c.09 0 .167-.077.167-.166v-1.347c0-.386-.22-.69-.67-.69z" id="path_35"></path><circle fill="#fff" cx="572.123" cy="56.31" r=".436" id="circle_108"></circle><path fill="#fff" d="M572.123 56.883c-.45 0-.668.304-.668.69v1.348c0 .09.075.167.167.167.09 0 .168.004.168.004v1.5c0 .113.096.206.207.206h.253c.11 0 .205-.093.205-.205v-1.5s.078-.003.17-.003.166-.077.166-.166v-1.347c0-.386-.214-.69-.667-.69z" id="path_36"></path><g fill="#fff" id="g_123"><path d="M573.405 52.704c-.05-.02-.113-.01-.155.026l-.898.84V51.96c0-.034-.016-.063-.04-.085-.105-.173-.404-.18-.515-.012-.03.023-.048.058-.048.097v1.607l-.905-.84c-.035-.036-.096-.047-.148-.026-.05.02-.084.066-.084.118v.393c0 .035.015.067.04.09l1.298 1.226c.03.024.064.036.103.04.034 0 .07-.015.097-.038l1.283-1.19c.024-.024.04-.055.04-.088l.018-.428c0-.053-.034-.1-.085-.122zM568.72 51.772c-.026-.025-.057-.047-.097-.04-.038 0-.073.014-.1.037l-1.285 1.19c-.023.024-.037.054-.04.086l-.015.43c0 .052.03.1.084.122.05.02.11.01.15-.026l.903-.84v1.61c0 .034.014.062.04.086.052.086.15.143.262.143.104 0 .2-.05.254-.13.027-.023.048-.06.048-.098v-1.608l.898.84c.04.036.1.046.15.027.052-.02.085-.064.085-.117v-.393c0-.035-.015-.068-.04-.09l-1.297-1.228z" id="path_37"></path></g></g><g fill="#333" font-family="'MicrosoftJhengHeiRegular'" font-size="5" id="g_124"><text transform="translate(119.917 90.52)" id="text_126">&#39080;&#29509;&#36092;&#29289;&#22283;&#38555;&#31934;&#21697;</text><text transform="translate(19.584 117.751)" id="text_127">&#26143;&#24052;&#20811;</text><text transform="translate(420.917 90.52)" id="text_128">&#39080;&#29509;&#36092;&#29289;&#22283;&#38555;&#31934;&#21697;</text><text transform="translate(612.917 103.291)" id="text_129">&#37326;&#19978;&#40629;&#21253;</text><text transform="translate(612.917 53.291)" id="text_130">&#36629;&#39135;&#21312;</text></g><g stroke="#333" stroke-miterlimit="10" fill="none" id="g_125"><path stroke-width=".25" d="M577.084 125c0 2.762-2.238 5-5 5" id="path_38"></path><path stroke-width=".5" d="M572.084 130.127v-5.15" id="path_39"></path><path stroke-width=".25" d="M577.084 125c0 2.762 2.238 5 5 5" id="path_40"></path><path stroke-width=".5" d="M582.084 130.127v-5.15" id="path_41"></path><path stroke-width=".25" d="M565.584 125c0 2.762-2.238 5-5 5" id="path_42"></path><path stroke-width=".5" d="M560.584 130.127v-5.15" id="path_43"></path><path stroke-width=".25" d="M565.584 125c0 2.762 2.238 5 5 5" id="path_44"></path><path stroke-width=".5" d="M570.584 130.127v-5.15" id="path_45"></path><path stroke-width=".25" d="M295 113.936c0 2.762-2.238 5-5 5" id="path_46"></path><path stroke-width=".5" d="M290 119.063v-5.152" id="path_47"></path><path stroke-width=".25" d="M295 113.936c0 2.762 2.238 5 5 5" id="path_48"></path><path stroke-width=".5" d="M300 119.063v-5.152" id="path_49"></path><path stroke-width=".25" d="M281.063 113.936c0 2.762-2.238 5-5 5" id="path_50"></path><path stroke-width=".5" d="M276.063 119.063v-5.152" id="path_51"></path><path stroke-width=".25" d="M281.063 113.936c0 2.762 2.238 5 5 5" id="path_52"></path><path stroke-width=".5" d="M286.063 119.063v-5.152" id="path_53"></path><path stroke-width=".25" d="M66.623 125.912c0 2.762-2.238 5-5 5" id="path_54"></path><path stroke-width=".5" d="M61.623 131.04v-5.152" id="path_55"></path><path stroke-width=".25" d="M66.623 125.912c0 2.762 2.238 5 5 5" id="path_56"></path><path stroke-width=".5" d="M71.623 131.04v-5.152" id="path_57"></path><path stroke-width=".25" d="M52.685 125.912c0 2.762-2.238 5-5 5" id="path_58"></path><path stroke-width=".5" d="M47.685 131.04v-5.152" id="path_59"></path><path stroke-width=".25" d="M52.685 125.912c0 2.762 2.238 5 5 5" id="path_60"></path><path stroke-width=".5" d="M57.685 131.04v-5.152" id="path_61"></path><path stroke-width=".25" d="M12.853 89.594c-2.762 0-5-2.238-5-5" id="path_62"></path><path stroke-width=".5" d="M7.726 84.594h5.15" id="path_63"></path><path stroke-width=".25" d="M12.853 89.594c-2.762 0-5 2.238-5 5" id="path_64"></path><path stroke-width=".5" d="M7.726 94.594h5.15" id="path_65"></path><path stroke-width=".25" d="M12.853 75.656c-2.762 0-5-2.238-5-5" id="path_66"></path><path stroke-width=".5" d="M7.726 70.656h5.15" id="path_67"></path><path stroke-width=".25" d="M12.853 75.656c-2.762 0-5 2.238-5 5" id="path_68"></path><path stroke-width=".5" d="M7.726 80.656h5.15" id="path_69"></path><path stroke-width=".25" d="M45.103 68.906c-2.762 0-5 2.238-5 5" id="path_70"></path><path stroke-width=".5" d="M39.976 73.906h5.15" id="path_71"></path><path stroke-width=".25" d="M20.102 98.913c0 2.762-2.238 5-5 5" id="path_72"></path><path stroke-width=".5" d="M15.102 104.04v-5.15" id="path_73"></path><path stroke-width=".25" d="M234.782 82.342c2.762 0 5 2.238 5 5" id="path_74"></path><path stroke-width=".5" d="M239.91 87.342h-5.153" id="path_75"></path><path stroke-width=".25" d="M234.782 82.342c2.762 0 5-2.24 5-5" id="path_76"></path><path stroke-width=".5" d="M239.91 77.34h-5.153" id="path_77"></path><path stroke-width=".25" d="M208.782 82.342c-2.762 0-5-2.238-5-5" id="path_78"></path><path stroke-width=".5" d="M203.655 77.342h5.15" id="path_79"></path><path stroke-width=".25" d="M208.782 82.342c-2.762 0-5 2.238-5 5" id="path_80"></path><path stroke-width=".5" d="M203.655 87.342h5.15" id="path_81"></path><path stroke-width=".25" d="M328.48 49.267c0-2.762 2.237-5 5-5" id="path_82"></path><path stroke-width=".5" d="M333.48 44.14v5.152" id="path_83"></path><path stroke-width=".25" d="M110.5 49.25c0-2.762 2.238-5 5-5" id="path_84"></path><path stroke-width=".5" d="M115.5 44.123v5.15" id="path_85"></path><path stroke-width=".25" d="M35.03 66.552c0-2.762 2.24-5 5-5" id="path_86"></path><path stroke-width=".5" d="M40.03 61.425v5.15" id="path_87"></path><path stroke-width=".25" d="M173.074 42.886c2.762 0 5 2.238 5 5" id="path_88"></path><path stroke-width=".5" d="M178.2 47.886h-5.15" id="path_89"></path><path stroke-width=".25" d="M426.813 49.1c0-2.76 2.238-5 5-5" id="path_90"></path><path stroke-width=".5" d="M431.813 43.974v5.15" id="path_91"></path><path stroke-width=".25" d="M520.48 49.268c0-2.762 2.237-5 5-5" id="path_92"></path><path stroke-width=".5" d="M525.48 44.14v5.152" id="path_93"></path><path stroke-width=".25" d="M562.292 48.955c0-2.762-2.238-5-5-5" id="path_94"></path><path stroke-width=".5" d="M557.292 43.828v5.15" id="path_95"></path><path stroke-width=".25" d="M577.375 49.02c0 2.762 2.238 5 5 5" id="path_96"></path><path stroke-width=".5" d="M582.375 54.146v-5.15" id="path_97"></path></g><path stroke="#333" stroke-miterlimit="10" fill="none" d="M584.334 69.667v-37.5" id="path_98"></path></g></svg>