<?xml version="1.0" encoding="utf-8"?>
<!-- Generator: Adobe Illustrator 21.0.0, SVG Export Plug-In . SVG Version: 6.00 Build 0)  -->
<svg version="1.1" id="圖層_1" xmlns="http://www.w3.org/2000/svg" xmlns:xlink="http://www.w3.org/1999/xlink" x="0px" y="0px"
	 viewBox="0 0 599 186" style="enable-background:new 0 0 599 186;" xml:space="preserve">
<style type="text/css">
	.st0{fill:#EFEAEA;}
	.st1{fill:#BEC5D1;}
	.st2{fill:#FFBC5A;}
	.st3{fill:#80E7FF;}
	.st4{fill:#D8ECE9;}
	.st5{fill:#FCFCD0;}
	.st6{fill:#F7E8AE;}
	.st7{fill:none;stroke:#333333;stroke-width:2.8623;stroke-miterlimit:10;}
	.st8{fill:none;stroke:#333333;stroke-width:1.9082;stroke-miterlimit:10;}
	.st9{fill:none;stroke:#333333;stroke-width:1.7149;stroke-miterlimit:10;}
	.st10{fill:none;stroke:#333333;stroke-width:0.9541;stroke-miterlimit:10;}
	.st11{fill:#433F3E;stroke:#FFFFFF;stroke-width:1.9082;stroke-miterlimit:10;}
	.st12{fill:#FFFFFF;}
	.st13{fill:#433F3E;}
	.st14{fill:#828282;}
	.st15{fill:#333333;}
	.st16{font-family:'MicrosoftSansSerif';}
	.st17{font-size:6.7297px;}
	.st18{fill:none;stroke:#333333;stroke-width:0.4771;stroke-miterlimit:10;}
	.st19{fill:none;stroke:#333333;stroke-width:0.5045;stroke-miterlimit:10;}
	.st20{fill:none;stroke:#333333;stroke-width:1.0089;stroke-miterlimit:10;}
	.st21{fill:#FFAEDC;}
	.st22{fill:#FFDEC7;}
	.st23{fill:#52A508;}
	.st24{font-family:'DFHeiStd-W5-B5pc-H';}
	.st25{font-size:6.4268px;}
	.st26{font-family:'AdobeMingStd-Light-B5pc-H';}
	.st27{fill:#D4E1FF;}
	.st28{font-size:3.8975px;}
	.st29{fill:none;stroke:#333333;stroke-width:1.8351;stroke-miterlimit:10;}
	.st30{fill:none;stroke:#433F3E;stroke-width:0.7934;stroke-miterlimit:10;}
	.st31{fill:none;stroke:#FFFFFF;stroke-width:0.7934;stroke-miterlimit:10;}
	.st32{fill:none;stroke:#433F3E;stroke-width:0.7093;stroke-miterlimit:10;}
	.st33{fill:none;stroke:#FFFFFF;stroke-width:0.7093;stroke-miterlimit:10;}
	.st34{enable-background:new    ;}
	.st35{font-size:5.223px;}
</style>
<g>
	<path class="st0" d="M282.5,147h-71.4V36.2h314.6h56.7l0.3,50.8v86.4h-57v-11.1h-34v11.1l-168.8,0.1v-26.4 M202.6,93.9V36h-96.8
		v27.8h-44V36.1H18.1v136.6h44.2v-9.6h38.3v9.6h102.3V93.9"/>
</g>
<path class="st1" d="M63.1,66.4v95.9h39.5v9.3h98.2v-109H166V39.1h-17v23.5h-41.3v3.8"/>
<rect x="103.4" y="63.9" class="st2" width="96.2" height="106.7"/>
<polygon class="st1" points="294,62.7 294,39 213,39 213,145.6 324.7,145.6 324.7,62.7 "/>
<polygon class="st3" points="465.8,39 465.8,62.7 430.5,62.7 430.5,39 411.2,39 411.2,62.7 376,62.7 376,39 338,39 338,62.7 
	324.7,62.7 324.7,145.6 324.8,145.6 324.8,172.5 485.7,172.5 485.7,39 "/>
<path class="st4" d="M19.5,128.8h41.1v43.4H19.5V128.8z"/>
<rect x="528" y="40" class="st5" width="52.6" height="131.8"/>
<path class="st6" d="M19.5,39.1h40.9v43.6H19.5V39.1z M107.3,37.9h38.5v21.7h-38.5V37.9z M169,38.5h31.8v21.1H169V38.5z M296.7,38.5
	H335v21.3h-38.3V38.5z M378.7,38.5h29.9v21h-29.9V38.5z M433.4,38.4h29.4v21.3h-29.4V38.4z M488.8,37.6H524v21.9h-35.2V37.6z"/>
<path class="st6" d="M234.8,81.4h87.8v33.3h-87.8V81.4L234.8,81.4z M488.9,61.8h34.7v18.7H489L488.9,61.8L488.9,61.8z"/>
<g>
	<path class="st7" d="M202.9,112v61.9H100.5v-9.6H97 M266.9,148h-55.7v-36.1 M285.6,148h-5.9 M298.3,148h24.5v26.4l168.8-0.1v-11.4
		h2.7"/>
	<path class="st7" d="M211.1,99.1v-62h371.6v137h-57.1v-10.9h-3 M18.1,121.7v52h44.2v-9.6h3.2 M18.1,103v5.9 M202.5,99.3V37h-96.8
		v27.7h-44V37H18.1v53.1 M78.1,163.9H84 M507.2,163.2h2.6"/>
</g>
<line class="st8" x1="48.3" y1="84.1" x2="18.3" y2="84.1"/>
<polyline class="st8" points="61.4,87.5 61.4,84.1 54.5,84.1 "/>
<line class="st8" x1="61.4" y1="62.7" x2="61.4" y2="84.1"/>
<line class="st8" x1="167.5" y1="52.5" x2="167.5" y2="36.9"/>
<polyline class="st8" points="202.5,61 167.4,61 167.4,58.7 "/>
<polyline class="st8" points="406.2,61 409.9,61 409.9,37.7 "/>
<polyline class="st8" points="377.4,37 377.4,61 399.8,61 "/>
<polyline class="st8" points="490,60.5 487.6,60.5 487.6,37 "/>
<line class="st8" x1="516.9" y1="60.5" x2="496.2" y2="60.5"/>
<line class="st8" x1="525.5" y1="60.5" x2="522.9" y2="60.5"/>
<polyline class="st8" points="461.4,61 464.2,61 464.2,36.9 "/>
<polyline class="st8" points="432.2,37 432.2,61 455.5,61 "/>
<line class="st8" x1="137" y1="61" x2="105.5" y2="61"/>
<polyline class="st8" points="147.2,37 147.2,61 143.3,61 "/>
<polyline class="st8" points="61.7,93.8 61.7,127.6 17.2,127.6 "/>
<polyline class="st8" points="328.4,61 336.3,61 336.3,37.7 "/>
<polyline class="st8" points="295.3,37 295.3,61 322.2,61 "/>
<line class="st9" x1="61.7" y1="165.1" x2="61.7" y2="134.8"/>
<line class="st8" x1="487.6" y1="61.2" x2="487.6" y2="81.1"/>
<path class="st10" d="M317.8,97.2h-82V82.6h85.5v3.6h-82.9"/>
<path class="st10" d="M317.8,103.8h-82V114h85.5V94.3h-82.9"/>
<path class="st11" d="M286.9,108.2h-16.1c-1.2,0-2.1-1-2.1-2.1V90c0-1.2,1-2.1,2.1-2.1h16.1c1.2,0,2.1,1,2.1,2.1v16.1
	C289,107.3,288,108.2,286.9,108.2L286.9,108.2z"/>
<g>
	<circle class="st12" cx="277.4" cy="92.5" r="1.1"/>
	<path class="st12" d="M284.8,93.6H281l-2.5,2.5V95c0-0.7-0.5-1.2-1.2-1.2s-1.2,0.5-1.2,1.2v3.5l-1.2,1.2h-2.1
		c-1.4,0-2.4,1.1-2.4,2.4c0,1.4,1.1,2.4,2.4,2.4h4.1l6.2-6.2h1.7c1.4,0,2.4-1.1,2.4-2.4C287.3,94.7,286.4,93.6,284.8,93.6
		L284.8,93.6z M284.8,97.6h-2l-6.2,6.2h-3.8c-1,0-1.7-0.9-1.7-1.7s0.9-1.7,1.7-1.7h2.4l6.2-6.2h3.3c1,0,1.7,0.9,1.7,1.7
		C286.8,96.8,285.9,97.6,284.8,97.6L284.8,97.6z"/>
</g>
<g>
	<path class="st13" d="M39.9,62.6c0,1-0.9,1.7-1.7,1.7H25c-1,0-1.7-0.9-1.7-1.7V49.5c0-1,0.9-1.7,1.7-1.7h13.1c1,0,1.7,0.9,1.7,1.7
		L39.9,62.6L39.9,62.6z"/>
	<g>
		<path class="st12" d="M31.7,62.1V49.8h-0.4v12.3H31.7z M27.9,51.9c0.5,0,1-0.4,1-1c0-0.5-0.4-1-1-1c-0.5,0-1,0.4-1,1
			C26.8,51.6,27.5,51.9,27.9,51.9L27.9,51.9z M30.2,53.7c0-0.9-0.9-1.5-1.9-1.5h-0.9c-1.1,0-1.9,0.7-1.9,1.5v3.2
			c0,0.3,0.1,0.4,0.4,0.4s0.4-0.1,0.4-0.4v-3.1c0-0.1,0.1-0.1,0.3-0.1c0.2,0,0.1,0.1,0.1,0.1v8c0,0.3,0.3,0.4,0.5,0.4
			s0.4-0.3,0.4-0.4V57c0-0.1,0.1-0.3,0.1-0.3c0.1,0,0.3,0.1,0.3,0.3v4.8c0,0.3,0.1,0.4,0.4,0.4s0.4-0.3,0.4-0.4v-8
			c0-0.1,0.1-0.1,0.1-0.1c0.1,0,0.1,0.1,0.1,0.1v3.1c0,0.1,0.1,0.4,0.4,0.4s0.4-0.1,0.4-0.4v-3.2H30.2z M35,51.9c0.5,0,1-0.4,1-1
			c0-0.5-0.4-1-1-1s-1,0.4-1,1C34.1,51.6,34.5,51.9,35,51.9L35,51.9z M37.6,55.7l-0.7-2.2c-0.3-0.7-0.9-1.2-1.5-1.4h-0.8
			c-0.9,0-1.4,0.5-1.5,1.4l-0.7,2.2v0.1c0,0.3,0.1,0.4,0.4,0.4c0.1,0,0.3-0.1,0.4-0.3l0.5-2c0-0.1,0.1-0.1,0.1-0.1
			c0.1,0,0.1,0.1,0.1,0.1s0,0,0,0.1l-1.2,4.2c0,0.1,0,0.3,0.3,0.3h1v3.2c0,0.3,0.1,0.4,0.4,0.4s0.4-0.1,0.4-0.4v-3.2h0.8v3.2
			c0,0.3,0.1,0.4,0.4,0.4s0.4-0.1,0.4-0.4v-3.2h1c0.1,0,0.3-0.1,0.3-0.3L36.5,54c0,0,0,0,0-0.1s0.1-0.1,0.1-0.1c0.1,0,0.1,0,0.1,0.1
			l0.7,2c0,0.1,0.1,0.3,0.4,0.3C37.5,56.3,37.6,55.9,37.6,55.7C37.6,55.8,37.6,55.7,37.6,55.7L37.6,55.7z"/>
	</g>
</g>
<path class="st14" d="M194.8,55.2c0,1-0.9,1.7-1.7,1.7H180c-1,0-1.7-0.9-1.7-1.7V42c0-1,0.9-1.7,1.7-1.7h13.1c1,0,1.7,0.9,1.7,1.7
	L194.8,55.2L194.8,55.2z"/>
<g>
	<path class="st12" d="M182.4,48L182.4,48c0.3,0,0.4-0.1,0.4-0.4l0.1-1.5l0.9-0.5v2.1c0,0.1,0,0.3,0.1,0.3l-1,3.8
		c0,0.3,0.1,0.5,0.4,0.7h0.1c0.3,0,0.4-0.1,0.5-0.4l0.9-3.5l1,0.4l-0.1,1.2c0,0.3,0.1,0.5,0.4,0.5l0,0c0.3,0,0.5-0.3,0.5-0.5
		l0.1-1.5c0-0.3-0.1-0.4-0.3-0.5l-1.4-0.7V46l0.5,0.5c0.1,0.1,0.1,0.1,0.3,0.1l1.5,0.1l0,0c0.3,0,0.4-0.1,0.4-0.4s-0.1-0.4-0.4-0.4
		l-1.4-0.1l-1.1-1.2c0-0.1-0.1-0.1-0.1-0.3c0-0.3-0.3-0.4-0.5-0.4c-0.1,0-0.3,0.1-0.4,0.3l-1.7,1.2c-0.1,0.1-0.1,0.1-0.1,0.3
		l-0.1,1.7C182,47.7,182.2,48,182.4,48L182.4,48z"/>
	<circle class="st12" cx="184.8" cy="42.9" r="1.1"/>
</g>
<path class="st12" d="M180.5,54.2h2.1v-1.7h2.1v-1.7h2.1v-1.6h2.1v-1.7h3.2v1.1H190v1.6h-2.1v1.7h-2.1v1.7h-2.1v1.7h-3.2V54.2
	L180.5,54.2z"/>
<g>
	<path class="st14" d="M317.6,55.9c0,1-0.9,1.7-1.7,1.7h-13.2c-1,0-1.7-0.9-1.7-1.7V42.8c0-1,0.9-1.7,1.7-1.7h13.1
		c1,0,1.7,0.9,1.7,1.7L317.6,55.9L317.6,55.9z"/>
	<g>
		<path class="st12" d="M305,48.7L305,48.7c0.3,0,0.4-0.1,0.4-0.4l0.1-1.5l0.9-0.5v2.1c0,0.1,0,0.3,0.1,0.3l-1,3.8
			c0,0.3,0.1,0.5,0.4,0.7h0.1c0.3,0,0.4-0.1,0.5-0.4l0.9-3.5l1,0.4l-0.1,1.2c0,0.3,0.1,0.5,0.4,0.5l0,0c0.3,0,0.5-0.3,0.5-0.5
			l0.1-1.5c0-0.1-0.1-0.4-0.3-0.5l-1.4-0.7v-1.5l0.5,0.5c0,0.1,0.1,0.1,0.3,0.1l1.5,0.1l0,0c0.3,0,0.4-0.1,0.4-0.4s-0.1-0.4-0.4-0.4
			l-1.4-0.1l-1.1-1.2c0-0.1-0.1-0.1-0.1-0.3c0-0.3-0.3-0.4-0.5-0.4c-0.1,0-0.3,0.1-0.4,0.3l-1.7,1.2c-0.1,0.1-0.1,0.1-0.1,0.3
			l-0.1,1.7C304.6,48.5,304.8,48.7,305,48.7L305,48.7z"/>
		<circle class="st12" cx="307.7" cy="43.8" r="1.1"/>
	</g>
	<path class="st12" d="M303.3,55h2.1v-1.7h2.1v-1.7h2.1v-1.7h2.1v-1.6h3.2v1.1h-2.1V51h-2v1.7h-2.1v1.7h-2.1v1.7h-3.2V55H303.3z"/>
</g>
<g>
	<path class="st14" d="M134.5,55.2c0,1-0.9,1.7-1.7,1.7h-13.1c-1,0-1.7-0.9-1.7-1.7V42c0-1,0.9-1.7,1.7-1.7h12.9
		c1,0,1.7,0.9,1.7,1.7v13.2H134.5z"/>
	<g>
		<path class="st12" d="M121.9,48L121.9,48c0.3,0,0.4-0.1,0.4-0.4l0.1-1.5l0.9-0.5v2.1c0,0.1,0,0.3,0.1,0.3l-1,3.8
			c-0.1,0.3,0.1,0.5,0.4,0.7h0.1c0.3,0,0.4-0.1,0.5-0.4l0.9-3.5l1,0.4l-0.1,1.2c0,0.3,0.1,0.5,0.4,0.5l0,0c0.3,0,0.5-0.3,0.5-0.5
			l0.1-1.5c0-0.3-0.1-0.4-0.3-0.5l-1.4-0.7V46l0.5,0.5c0.1,0.1,0.1,0.1,0.3,0.1l1.5,0.1l0,0c0.3,0,0.4-0.1,0.4-0.4s-0.1-0.4-0.4-0.4
			l-1.4-0.1l-1.1-1.2c0-0.1-0.1-0.1-0.1-0.3c0-0.3-0.3-0.4-0.5-0.4c-0.1,0-0.3,0.1-0.4,0.3l-1.7,1.2c-0.1,0.1-0.1,0.1-0.1,0.3
			l-0.1,1.7C121.6,47.7,121.8,48,121.9,48L121.9,48z"/>
		<circle class="st12" cx="124.5" cy="42.9" r="1.1"/>
	</g>
	<path class="st12" d="M120.3,54.2h2.1v-1.7h2.1v-1.7h2.1v-1.6h2.1v-1.7h3.2v1.1h-2.1v1.6h-2.2v1.7h-2.1v1.7h-2.1v1.7h-3.2
		L120.3,54.2L120.3,54.2z"/>
</g>
<g>
	<path class="st14" d="M397.5,55.2c0,1-0.9,1.7-1.7,1.7h-13.1c-1,0-1.7-0.9-1.7-1.7V42c0-1,0.9-1.7,1.7-1.7h13.1
		c1,0,1.7,0.9,1.7,1.7V55.2L397.5,55.2z"/>
	<g>
		<path class="st12" d="M385,48L385,48c0.3,0,0.4-0.1,0.4-0.4l0.1-1.5l0.9-0.5v2.1c0,0.1,0,0.3,0.1,0.3l-1,3.8
			c0,0.3,0.1,0.5,0.4,0.7h0.1c0.3,0,0.4-0.1,0.5-0.4l0.9-3.5l1,0.4l-0.1,1.2c0,0.3,0.1,0.5,0.4,0.5l0,0c0.3,0,0.5-0.3,0.5-0.5
			l0.1-1.5c0-0.3-0.1-0.4-0.3-0.5l-1.4-0.7V46l0.5,0.5c0,0.1,0.1,0.1,0.3,0.1l1.5,0.1l0,0c0.3,0,0.4-0.1,0.4-0.4s-0.1-0.4-0.4-0.4
			l-1.4-0.1l-1.1-1.2c0-0.1-0.1-0.1-0.1-0.3c0-0.3-0.3-0.4-0.5-0.4c-0.1,0-0.3,0.1-0.4,0.3l-1.7,1.2c-0.1,0.1-0.1,0.1-0.1,0.3
			l-0.1,1.7C384.5,47.7,384.6,48,385,48L385,48z"/>
		<circle class="st12" cx="387.5" cy="42.9" r="1.1"/>
	</g>
	<path class="st12" d="M383.2,54.2h2.1v-1.7h2.1v-1.7h2.1v-1.6h2.1v-1.7h3.2v1.1h-2.1v1.6h-2.2v1.7h-2.1v1.7h-2.1v1.7h-3.2
		L383.2,54.2L383.2,54.2z"/>
</g>
<g>
	<path class="st14" d="M452.5,55.2c0,1-0.9,1.7-1.7,1.7h-13.1c-1,0-1.7-0.9-1.7-1.7V42c0-1,0.9-1.7,1.7-1.7h13.1
		c1,0,1.7,0.9,1.7,1.7V55.2z"/>
	<g>
		<path class="st12" d="M439.9,48L439.9,48c0.3,0,0.4-0.1,0.4-0.4l0.1-1.5l0.9-0.5v2.1c0,0.1,0,0.3,0.1,0.3l-1,3.8
			c0,0.3,0.1,0.5,0.4,0.7h0.1c0.3,0,0.4-0.1,0.5-0.4l0.9-3.5l1,0.4l-0.1,1.2c0,0.3,0.1,0.5,0.4,0.5l0,0c0.3,0,0.5-0.3,0.5-0.5
			l0.1-1.5c0-0.3-0.1-0.4-0.3-0.5l-1.4-0.7V46l0.5,0.5c0,0.1,0.1,0.1,0.3,0.1l1.5,0.1l0,0c0.3,0,0.4-0.1,0.4-0.4s-0.1-0.4-0.4-0.4
			l-1.4-0.1l-1-1.2c0-0.1-0.1-0.1-0.1-0.3c0-0.3-0.3-0.4-0.5-0.4c-0.1,0-0.3,0.1-0.4,0.3l-1.7,1.2c-0.1,0.1-0.1,0.1-0.1,0.3
			l-0.1,1.7C439.5,47.7,439.7,48,439.9,48L439.9,48z"/>
		<circle class="st12" cx="442.5" cy="42.9" r="1.1"/>
	</g>
	<path class="st12" d="M438.1,54.2h2.1v-1.7h2.1v-1.7h2.1v-1.6h2.1v-1.7h3.2v1.1h-2.1v1.6h-2.1v1.7h-2.1v1.7h-2.1v1.7h-3.2
		L438.1,54.2L438.1,54.2z"/>
</g>
<g>
	<path class="st14" d="M515.5,55.2c0,1-0.9,1.7-1.7,1.7h-13.1c-1,0-1.7-0.9-1.7-1.7V42c0-1,0.9-1.7,1.7-1.7h13.1
		c1,0,1.7,0.9,1.7,1.7V55.2z"/>
	<g>
		<path class="st12" d="M503,48L503,48c0.3,0,0.4-0.1,0.4-0.4l0.1-1.5l0.9-0.5v2.1c0,0.1,0,0.3,0.1,0.3l-1,3.8
			c0,0.3,0.1,0.5,0.4,0.7h0.1c0.3,0,0.4-0.1,0.5-0.4l0.9-3.5l1,0.4l-0.1,1.2c0,0.3,0.1,0.5,0.4,0.5l0,0c0.3,0,0.5-0.3,0.5-0.5
			l0.1-1.5c0-0.3-0.1-0.4-0.3-0.5l-1.4-0.7V46l0.5,0.5c0,0.1,0.1,0.1,0.3,0.1l1.5,0.1l0,0c0.3,0,0.4-0.1,0.4-0.4s-0.1-0.4-0.4-0.4
			l-1.4-0.1l-1.1-1.2c0-0.1-0.1-0.1-0.1-0.3c0-0.3-0.3-0.4-0.5-0.4c-0.1,0-0.3,0.1-0.4,0.3l-1.7,1.2c-0.1,0.1-0.1,0.1-0.1,0.3
			l-0.1,1.7C502.5,47.7,502.9,48,503,48L503,48z"/>
		<circle class="st12" cx="505.6" cy="42.9" r="1.1"/>
	</g>
	<path class="st12" d="M501.3,54.2h2.1v-1.7h2.1v-1.7h2.1v-1.6h2.1v-1.7h3.2v1.1h-2.1v1.6h-2.1v1.7h-2.1v1.7h-2.1v1.7h-3.2V54.2
		L501.3,54.2z"/>
</g>
<g>
	<path class="st13" d="M515.5,77.7c0,1-0.9,1.7-1.7,1.7h-13.1c-1,0-1.7-0.9-1.7-1.7V64.6c0-1,0.9-1.7,1.7-1.7h13.1
		c1,0,1.7,0.9,1.7,1.7V77.7L515.5,77.7z"/>
	<path class="st12" d="M511.7,68.5h-9c-0.3,0-0.4,0.1-0.4,0.4v8.2c0,0.3,0.1,0.4,0.4,0.4h9c0.3,0,0.4-0.1,0.4-0.4v-8.2
		C512,68.6,511.9,68.5,511.7,68.5L511.7,68.5z M511.4,76.9H503v-7.8h8.5L511.4,76.9L511.4,76.9z"/>
	<circle class="st12" cx="504.8" cy="70.4" r="0.5"/>
	<path class="st12" d="M504.8,71.2c-0.7,0-1,0.4-1,1v1.7c0,0.1,0.1,0.3,0.3,0.3c0.1,0,0.3,0,0.3,0v2c0,0.1,0.1,0.3,0.3,0.3h0.4
		c0.1,0,0.3-0.1,0.3-0.3v-2c0,0,0.1,0,0.3,0c0.1,0,0.3-0.1,0.3-0.3v-1.7C505.7,71.6,505.5,71.2,504.8,71.2L504.8,71.2z"/>
	<circle class="st12" cx="507.2" cy="70.4" r="0.5"/>
	<path class="st12" d="M507.2,71.2c-0.7,0-1,0.4-1,1v1.7c0,0.1,0.1,0.3,0.3,0.3s0.3,0,0.3,0v2c0,0.1,0.1,0.3,0.3,0.3h0.4
		c0.1,0,0.3-0.1,0.3-0.3v-2c0,0,0.1,0,0.3,0c0.1,0,0.3-0.1,0.3-0.3v-1.7C508.2,71.6,507.8,71.2,507.2,71.2L507.2,71.2z"/>
	<g>
		<circle class="st12" cx="509.6" cy="70.4" r="0.5"/>
		<path class="st12" d="M509.6,71.2c-0.7,0-1,0.4-1,1v1.7c0,0.1,0.1,0.3,0.3,0.3c0.1,0,0.3,0,0.3,0v2c0,0.1,0.1,0.3,0.3,0.3h0.4
			c0.1,0,0.3-0.1,0.3-0.3v-2c0,0,0.1,0,0.3,0s0.3-0.1,0.3-0.3v-1.7C510.6,71.6,510.2,71.2,509.6,71.2L509.6,71.2z"/>
	</g>
	<g>
		<path class="st12" d="M511.3,65.7c0,0-0.1,0-0.3,0l-1.2,1.1v-2.1v-0.2c-0.1-0.3-0.5-0.3-0.7,0v0.1v2.1l-1.2-1.1h-0.1l-0.1,0.1v0.5
			v0.1l1.7,1.6h0.1h0.1l1.7-1.6v-0.1V65.7C511.4,65.8,511.4,65.7,511.3,65.7L511.3,65.7z M505.1,64.3L505.1,64.3c-0.1,0-0.3,0-0.3,0
			l-1.7,1.6V66v0.5c0,0.1,0,0.1,0.1,0.1c0,0,0.1,0,0.3,0l1.2-1.1v2.1v0.1c0.1,0.1,0.3,0.1,0.4,0.1c0.1,0,0.3,0,0.4-0.1v-0.1v-2.1
			l1.2,1.1c0,0,0.1,0,0.3,0c0.1,0,0.1-0.1,0.1-0.1v-0.4V66L505.1,64.3L505.1,64.3z"/>
	</g>
</g>
<text transform="matrix(1 0 0 1 138.047 116.4239)" class="st15 st16 st17">&#x65e5;&#x85e5;&#x672c;&#x8216;</text>
<text transform="matrix(1 0 0 1 31.5685 153.0741)" class="st15 st16 st17">&#x661f;&#x5df4;&#x514b;</text>
<text transform="matrix(1 0 0 1 542.7338 100.495)" class="st15 st16 st17">&#x749e;&#x4e4b;&#x934b;</text>
<path class="st18" d="M516.4,162.9c0,3.8-3,6.8-6.8,6.8"/>
<path class="st10" d="M509.6,169.7v-6.9"/>
<path class="st18" d="M516.4,162.9c0,3.8,3,6.8,6.8,6.8"/>
<path class="st10" d="M523,169.7v-6.9"/>
<path class="st18" d="M500.9,162.9c0,3.8-3,6.8-6.8,6.8"/>
<path class="st10" d="M494.2,169.7v-6.9"/>
<path class="st18" d="M500.9,162.9c0,3.8,3,6.8,6.8,6.8"/>
<path class="st10" d="M507.6,169.7v-6.9"/>
<path class="st18" d="M291.9,148c0,3.8-3,6.8-6.8,6.8"/>
<path class="st10" d="M285.3,155v-7"/>
<path class="st18" d="M291.9,148c0,3.8,3,6.8,6.8,6.8"/>
<path class="st10" d="M298.7,155v-7"/>
<path class="st18" d="M273.2,148c0,3.8-3,6.8-6.8,6.8"/>
<path class="st10" d="M266.4,155v-7"/>
<path class="st18" d="M273.2,148c0,3.8,3,6.8,6.8,6.8"/>
<path class="st10" d="M279.9,155v-7"/>
<path class="st18" d="M90.6,164.1c0,3.8-3,6.8-6.8,6.8"/>
<path class="st10" d="M83.8,170.8v-6.9"/>
<path class="st18" d="M90.6,164.1c0,3.8,3,6.8,6.8,6.8"/>
<path class="st10" d="M97.3,170.8v-6.9"/>
<g>
	<path class="st18" d="M71.8,164.1c0,3.8-3,6.8-6.8,6.8"/>
	<path class="st10" d="M65,170.8v-6.9"/>
	<g>
		<path class="st18" d="M71.8,164.1c0,3.8,3,6.8,6.8,6.8"/>
		<path class="st10" d="M78.7,170.8v-6.9"/>
	</g>
</g>
<g>
	<path class="st18" d="M18.3,115.2c-3.8,0-6.8-3-6.8-6.8"/>
	<path class="st10" d="M11.3,108.5h7"/>
	<g>
		<path class="st18" d="M18.3,115.2c-3.8,0-6.8,3-6.8,6.8"/>
		<path class="st10" d="M11.3,121.9h7"/>
	</g>
</g>
<g>
	<path class="st18" d="M18.3,96.3c-3.8,0-6.8-3-6.8-6.8"/>
	<path class="st10" d="M11.3,89.6h7"/>
	<g>
		<path class="st18" d="M18.3,96.3c-3.8,0-6.8,3-6.8,6.8"/>
		<path class="st10" d="M11.3,103.1h7"/>
	</g>
</g>
<g>
	<path class="st18" d="M61.6,87.3c-3.8,0-6.8,3-6.8,6.8"/>
	<path class="st10" d="M54.8,94.1h7"/>
</g>
<g>
	<path class="st19" d="M61.3,134.8c-3.9,0-7.1-3.1-7.1-7.1"/>
	<path class="st20" d="M54,127.8h7.2"/>
</g>
<g>
	<path class="st19" d="M101,156.3c3.9,0,7.1,3.1,7.1,7.1"/>
	<path class="st20" d="M108.2,163.5H101"/>
</g>
<g>
	<path class="st18" d="M211,105.4c3.8,0,6.8,3,6.8,6.8"/>
	<path class="st10" d="M217.7,112.2h-6.9"/>
	<g>
		<path class="st18" d="M211,105.4c3.8,0,6.8-3,6.8-6.8"/>
		<path class="st10" d="M217.7,98.6h-6.9"/>
	</g>
</g>
<g>
	<path class="st18" d="M202.8,105.4c-3.8,0-6.8-3-6.8-6.8"/>
	<path class="st10" d="M195.9,98.6h6.9"/>
	<g>
		<path class="st18" d="M202.8,105.4c-3.8,0-6.8,3-6.8,6.8"/>
		<path class="st10" d="M195.9,112.2h6.9"/>
	</g>
</g>
<g>
	<path class="st18" d="M322,61c0-3.8,3-6.8,6.8-6.8"/>
	<path class="st10" d="M328.8,54v7"/>
</g>
<g>
	<path class="st18" d="M136.7,61c0-3.8,3-6.8,6.8-6.8"/>
	<path class="st10" d="M143.5,54v6.9"/>
</g>
<g>
	<path class="st18" d="M48,84.1c0-3.8,3-6.8,6.8-6.8"/>
	<path class="st10" d="M54.8,77.3v6.9"/>
</g>
<g>
	<path class="st18" d="M167.5,52.2c3.8,0,6.8,3,6.8,6.8"/>
	<path class="st10" d="M174.4,59h-6.9"/>
</g>
<g>
	<path class="st18" d="M399.7,60.6c0-3.8,3-6.8,6.8-6.8"/>
	<path class="st10" d="M406.5,53.9v6.9"/>
</g>
<g>
	<path class="st18" d="M455.1,61c0-3.8,3-6.8,6.8-6.8"/>
	<path class="st10" d="M461.9,54v7"/>
</g>
<g>
	<path class="st18" d="M496.5,60.4c0-3.8-3-6.8-6.8-6.8"/>
	<path class="st10" d="M489.8,53.6v7"/>
</g>
<g>
	<path class="st18" d="M516.7,60.5c0,3.8,3,6.8,6.8,6.8"/>
	<path class="st10" d="M523.5,67.4v-7"/>
</g>
<path class="st8" d="M526.1,88.4V38"/>
<rect x="213" y="38.8" class="st21" width="80.7" height="19.3"/>
<text transform="matrix(1 0 0 1 217.6682 50.9218)" class="st15 st16 st17">&#x5317;&#x68df;&#x9867;&#x5ba2;&#x670d;&#x52d9;&#x4e2d;&#x5fc3;</text>
<rect x="298.7" y="128.1" class="st22" width="25.9" height="17.1"/>
<rect x="213.5" y="128.1" class="st23" width="52.6" height="17.1"/>
<text transform="matrix(0.8787 0 0 1 299.5596 139.4271)" class="st15 st16 st17">&#x91d1;&#x9580;&#x7279;&#x7522;</text>
<text transform="matrix(1.0582 0 0 1 225.7617 139.4271)" class="st15 st16 st17">&#x98a8;&#x7345;&#x723a;&#x7d05;&#x8c46;&#x9905;</text>
<g>
	<path class="st13" d="M57.4,62.7c0,1-0.9,1.7-1.7,1.7h-13c-1,0-1.7-0.9-1.7-1.7V49.6c0-1,0.9-1.7,1.7-1.7h13.1c1,0,1.7,0.9,1.7,1.7
		L57.4,62.7L57.4,62.7z"/>
	<g>
		<path class="st12" d="M51,60c-0.1,0-0.2,0-0.3,0c-0.8,0-1.3-0.3-1.6-0.9c-0.3-0.4-0.5-0.8-0.9-1.2c-0.1-0.2-0.3-0.3-0.7-0.3
			c-0.2,0-0.4,0.2-0.4,0.4c0,0.1,0,0.3,0,0.4c0.1,0.3,0.2,0.5,0.3,0.9c0.1,0.2,0,0.4-0.2,0.4c-0.3,0.1-0.7,0.1-1.1,0.2
			c-0.2,0-0.3,0-0.5,0.1c0.3,0.3,0.7,0.5,1.1,0.5c0.7,0.1,1.2,0.1,1.8,0.2c0.2,0,0.4,0,0.5,0c0.3,0,0.7,0.2,0.8,0.5
			c0.1,0.4,0,0.8-0.3,1.1c-0.5,0.4-1.2,0.5-1.8,0.4c-1.1-0.1-2-0.4-2.8-1.1c-1-0.8-1.3-1.7-1-2.8c0.3-1.5,1.1-2.7,1.9-4.1
			c0.4-0.5,1-0.8,1.7-0.8c1.2,0,2.2,0.1,3.4,0.1c0.8,0,1.4,0.3,1.8,1c0.5,0.9,1.1,1.7,1.4,2.6c0.3,1,0.1,1.8-0.5,2.5
			c-0.3,0.4-0.8,0.8-1.2,1.1c-0.4,0.3-1,0.3-1.5,0.3s-1-0.9-0.5-1.3C50.6,60.5,50.8,60.3,51,60z M50.9,56.5c-0.9,0-1.6,0.8-1.6,1.6
			s0.8,1.6,1.6,1.5c0.9,0,1.6-0.7,1.6-1.6C52.6,57.3,51.8,56.6,50.9,56.5z"/>
		<path class="st12" d="M49.2,53.7c-1.3,0-2.3-1.1-2.3-2.2c0-1.3,1.1-2.3,2.3-2.3s2.2,1.1,2.2,2.3C51.6,52.8,50.5,53.7,49.2,53.7z"
			/>
	</g>
</g>
<rect x="18.8" y="19.3" class="st4" width="5" height="5"/>
<text transform="matrix(1 0 0 1 27.4363 24.1844)" class="st24 st25">星巴克</text>
<rect x="57.6" y="19.3" class="st3" width="5" height="5"/>
<text transform="matrix(1 0 0 1 66.2648 24.1844)" class="st24 st25">風獅購物量販</text>
<rect x="108.8" y="19.3" class="st21" width="5" height="5"/>
<text transform="matrix(1 0 0 1 117.4114 24.1844)" class="st24 st25">北棟顧客服</text>
<text transform="matrix(1 0 0 1 149.5373 24.3125)" class="st26 st25">務</text>
<text transform="matrix(1 0 0 1 155.984 24.1844)" class="st24 st25">中心</text>
<rect x="175.2" y="19.3" class="st22" width="5" height="5"/>
<text transform="matrix(1 0 0 1 183.9528 24.1844)" class="st24 st25">金門特產</text>
<rect x="219.2" y="19.3" class="st27" width="5" height="5"/>
<text transform="matrix(1 0 0 1 227.8694 24.1844)" class="st24 st25">會員服務中心</text>
<rect x="275.3" y="19.3" class="st5" width="5" height="5"/>
<text transform="matrix(1 0 0 1 283.9963 24.1844)" class="st24 st25">璞之鍋</text>
<rect x="313.8" y="19.3" class="st23" width="5" height="5"/>
<text transform="matrix(1.0582 0 0 1 322.545 24.1844)" class="st15 st16 st17">&#x98a8;&#x7345;&#x723a;&#x7d05;&#x8c46;&#x9905;</text>
<rect x="357.1" y="19.3" class="st2" width="5" height="5"/>
<text transform="matrix(1.0582 0 0 1 365.8784 24.1844)" class="st15 st16 st17">&#x65e5;&#x85e5;&#x672c;&#x8216;</text>
<g>
	<path class="st13" d="M549,26.9h-9.8c-0.8,0-1.3-0.5-1.3-1.3v-9.8c0-0.8,0.5-1.3,1.3-1.3h9.8c0.8,0,1.3,0.5,1.3,1.3v9.8
		C550.4,26.4,549.7,26.9,549,26.9L549,26.9z"/>
	<g>
		<circle class="st12" cx="543.3" cy="17.3" r="0.7"/>
		<path class="st12" d="M548,18h-2.3l-1.6,1.6v-0.7c0-0.4-0.3-0.8-0.8-0.8c-0.4,0-0.8,0.3-0.8,0.8V21l-0.8,0.8h-1.3
			c-0.9,0-1.5,0.7-1.5,1.5c0,0.9,0.7,1.5,1.5,1.5h2.4l3.9-3.9h1.1c0.9,0,1.5-0.7,1.5-1.5C549.3,18.6,548.8,18,548,18L548,18z
			 M548,20.4h-1.3l-3.9,3.9h-2.3c-0.5,0-1.1-0.5-1.1-1.1s0.5-1.1,1.1-1.1h1.5l3.9-3.9h2c0.5,0,1.1,0.5,1.1,1.1
			C549,19.8,548.5,20.4,548,20.4L548,20.4z"/>
	</g>
</g>
<g>
	<path class="st13" d="M535.3,25.8c0,0.8-0.7,1.3-1.3,1.3h-9.8c-0.8,0-1.3-0.7-1.3-1.3V16c0-0.8,0.7-1.3,1.3-1.3h9.8
		c0.8,0,1.3,0.7,1.3,1.3V25.8L535.3,25.8z"/>
	<path class="st12" d="M532.5,19h-6.7c-0.2,0-0.3,0.1-0.3,0.3v6c0,0.2,0.1,0.3,0.3,0.3h6.7c0.2,0,0.3-0.1,0.3-0.3v-6
		C532.7,19.1,532.7,19,532.5,19L532.5,19z M532.3,25.1h-6.2v-5.7h6.2V25.1L532.3,25.1z"/>
	<circle class="st12" cx="527.3" cy="20.3" r="0.4"/>
	<path class="st12" d="M527.3,20.9c-0.5,0-0.8,0.3-0.8,0.8V23c0,0.1,0.1,0.2,0.2,0.2c0.1,0,0.2,0,0.2,0v1.5c0,0.1,0.1,0.2,0.2,0.2
		h0.3c0.1,0,0.2-0.1,0.2-0.2v-1.5c0,0,0.1,0,0.2,0s0.2-0.1,0.2-0.2v-1.3C528,21.3,527.6,20.9,527.3,20.9L527.3,20.9z"/>
	<circle class="st12" cx="529.2" cy="20.3" r="0.4"/>
	<path class="st12" d="M529.2,20.9c-0.5,0-0.8,0.3-0.8,0.8V23c0,0.1,0.1,0.2,0.2,0.2s0.2,0,0.2,0v1.5c0,0.1,0.1,0.2,0.2,0.2h0.3
		c0.1,0,0.2-0.1,0.2-0.2v-1.5c0,0,0.1,0,0.2,0c0.1,0,0.2-0.1,0.2-0.2v-1.3C529.8,21.3,529.5,20.9,529.2,20.9L529.2,20.9z"/>
	<g>
		<circle class="st12" cx="531" cy="20.3" r="0.4"/>
		<path class="st12" d="M531,20.9c-0.5,0-0.8,0.3-0.8,0.8V23c0,0.1,0.1,0.2,0.2,0.2c0.1,0,0.2,0,0.2,0v1.5c0,0.1,0.1,0.2,0.2,0.2
			h0.3c0.1,0,0.2-0.1,0.2-0.2v-1.5c0,0,0.1,0,0.2,0c0.1,0,0.2-0.1,0.2-0.2v-1.3C531.6,21.3,531.4,20.9,531,20.9L531,20.9z"/>
	</g>
	<g>
		<path class="st12" d="M532.2,16.7c0,0-0.1,0-0.2,0l-0.9,0.9V16v-0.1c-0.1-0.2-0.4-0.2-0.5,0V16v1.6l-0.9-0.9l0,0l-0.1,0.1v0.4v0.1
			l1.3,1.2h0.1h0.1l1.3-1.2v-0.1L532.2,16.7C532.3,16.8,532.3,16.7,532.2,16.7L532.2,16.7z M527.4,15.9
			C527.4,15.8,527.4,15.8,527.4,15.9c-0.1,0-0.2,0-0.2,0l-1.3,1.2v0.1v0.4c0,0.1,0,0.1,0.1,0.1c0,0,0.1,0,0.2,0l0.9-0.9v1.6v0.1
			c0.1,0.1,0.2,0.1,0.3,0.1s0.2,0,0.3-0.1v-0.1v-1.6l0.9,0.9c0,0,0.1,0,0.2,0s0.1-0.1,0.1-0.1v-0.4v-0.1L527.4,15.9L527.4,15.9z"/>
	</g>
</g>
<g>
	<path class="st13" d="M489.8,25.8c0,0.8-0.7,1.3-1.3,1.3h-9.8c-0.8,0-1.3-0.7-1.3-1.3V16c0-0.8,0.7-1.3,1.3-1.3h9.8
		c0.8,0,1.3,0.7,1.3,1.3V25.8z"/>
	<g>
		<path class="st12" d="M483.5,25.4v-9.2h-0.3v9.1L483.5,25.4L483.5,25.4z M480.8,17.7c0.4,0,0.8-0.3,0.8-0.8c0-0.4-0.3-0.8-0.8-0.8
			c-0.4,0-0.8,0.3-0.8,0.8C479.9,17.4,480.4,17.7,480.8,17.7L480.8,17.7z M482.4,19.2c0-0.7-0.7-1.1-1.4-1.1h-0.7
			c-0.9,0-1.4,0.5-1.4,1.1v2.4c0,0.2,0.1,0.3,0.3,0.3s0.3-0.1,0.3-0.3v-2.3c0-0.1,0.1-0.1,0.2-0.1c0.1,0,0.1,0.1,0.1,0.1v5.9
			c0,0.2,0.2,0.3,0.4,0.3s0.3-0.2,0.3-0.3v-3.5c0-0.1,0.1-0.2,0.1-0.2c0.1,0,0.2,0.1,0.2,0.2v3.5c0,0.2,0.1,0.3,0.3,0.3
			s0.3-0.2,0.3-0.3v-5.9c0-0.1,0.1-0.1,0.1-0.1c0.1,0,0.1,0.1,0.1,0.1v2.3c0,0.1,0.1,0.3,0.3,0.3s0.3-0.1,0.3-0.3L482.4,19.2
			L482.4,19.2z M486.1,17.7c0.4,0,0.8-0.3,0.8-0.8c0-0.4-0.3-0.8-0.8-0.8c-0.4,0-0.8,0.3-0.8,0.8S485.6,17.7,486.1,17.7L486.1,17.7z
			 M487.9,20.6l-0.5-1.7c-0.2-0.5-0.7-0.9-1.1-1h-0.7c-0.7,0-1,0.4-1.1,1l-0.5,1.7v0.1c0,0.2,0.1,0.3,0.3,0.3c0.1,0,0.2-0.1,0.3-0.2
			l0.4-1.5c0-0.1,0.1-0.1,0.1-0.1c0.1,0,0.1,0.1,0.1,0.1s0,0,0,0.1l-0.9,3.1c0,0.1,0,0.2,0.2,0.2h0.8v2.4c0,0.2,0.1,0.3,0.3,0.3
			s0.3-0.1,0.3-0.3v-2.4h0.3v2.4c0,0.2,0.1,0.3,0.3,0.3s0.3-0.1,0.3-0.3v-2.4h0.8c0.1,0,0.2-0.1,0.2-0.2l-0.9-3.1c0,0,0,0,0-0.1
			s0.1-0.1,0.1-0.1c0.1,0,0.1,0,0.1,0.1l0.5,1.5c0,0.1,0.1,0.2,0.3,0.2C487.9,20.9,487.9,20.8,487.9,20.6
			C487.9,20.7,487.9,20.6,487.9,20.6L487.9,20.6z"/>
	</g>
</g>
<g>
	<path class="st14" d="M520.2,25.8c0,0.8-0.7,1.3-1.3,1.3h-9.8c-0.8,0-1.3-0.7-1.3-1.3V16c0-0.8,0.7-1.3,1.3-1.3h9.8
		c0.8,0,1.3,0.7,1.3,1.3V25.8z"/>
	<g>
		<path class="st12" d="M510.8,20.4L510.8,20.4c0.2,0,0.3-0.1,0.3-0.3l0.1-1.1l0.7-0.4v1.6c0,0.1,0,0.2,0.1,0.2l-0.8,2.7
			c-0.1,0.2,0.1,0.4,0.3,0.5h0.1c0.2,0,0.3-0.1,0.4-0.3l0.7-2.5l0.8,0.3l-0.1,0.9c0,0.2,0.1,0.4,0.3,0.4l0,0c0.2,0,0.4-0.2,0.4-0.4
			l0.1-1.1c0-0.2-0.1-0.3-0.2-0.4l-1-0.5v-1.1l0.4,0.4c0.1,0.1,0.1,0.1,0.2,0.1l1.1,0.1l0,0c0.2,0,0.3-0.1,0.3-0.3s-0.1-0.3-0.3-0.3
			l-1-0.1l-0.9-0.9c0-0.1-0.1-0.1-0.1-0.2c0-0.2-0.2-0.3-0.4-0.3c-0.1,0-0.2,0.1-0.3,0.2l-1.3,0.9c-0.1,0.1-0.1,0.1-0.1,0.2
			l-0.1,1.3C510.5,20.2,510.7,20.4,510.8,20.4L510.8,20.4z"/>
		<circle class="st12" cx="512.8" cy="16.7" r="0.9"/>
	</g>
	<path class="st12" d="M509.5,25h1.6v-1.3h1.6v-1.3h1.6v-1.2h1.6v-1.3h2.4v0.9h-1.6V22h-1.6v1.3h-1.6v1.3h-1.6v1.3h-2.4V25L509.5,25
		z"/>
</g>
<g>
	<path class="st13" d="M505,25.8c0,0.8-0.7,1.3-1.3,1.3h-9.8c-0.8,0-1.3-0.7-1.3-1.3V16c0-0.8,0.7-1.3,1.3-1.3h9.8
		c0.8,0,1.3,0.7,1.3,1.3V25.8z"/>
	<g>
		<path class="st12" d="M500.2,23.7c-0.1,0-0.2,0-0.2,0c-0.5,0-1-0.2-1.2-0.7c-0.2-0.3-0.4-0.7-0.7-0.9c-0.1-0.2-0.2-0.2-0.4-0.2
			s-0.3,0.1-0.3,0.3c0,0.1,0,0.2,0,0.3c0.1,0.2,0.1,0.4,0.2,0.7c0.1,0.2,0,0.3-0.1,0.3c-0.2,0.1-0.5,0.1-0.8,0.2
			c-0.1,0-0.2,0-0.4,0.1c0.2,0.2,0.5,0.3,0.8,0.4c0.4,0.1,0.9,0.1,1.4,0.2c0.1,0,0.3,0,0.4,0c0.2,0,0.4,0.2,0.5,0.4
			c0.1,0.3,0,0.7-0.2,0.9c-0.4,0.3-0.9,0.4-1.4,0.3c-0.8-0.1-1.5-0.3-2.1-0.9c-0.8-0.5-1-1.3-0.8-2.1c0.3-1.1,0.8-2.1,1.5-3
			c0.3-0.4,0.8-0.7,1.3-0.5c0.9,0,1.7,0,2.5,0c0.5,0,1.1,0.2,1.4,0.8c0.4,0.7,0.8,1.3,1.1,2c0.2,0.8,0.1,1.4-0.4,1.9
			c-0.3,0.3-0.7,0.5-1,0.8c-0.3,0.2-0.8,0.3-1.1,0.2c-0.4,0-0.7-0.7-0.4-1C499.9,24,500,23.9,500.2,23.7z M500.1,21
			c-0.7,0-1.2,0.5-1.2,1.2s0.7,1.2,1.2,1.2c0.7,0,1.2-0.5,1.2-1.2C501.3,21.6,500.7,21,500.1,21z"/>
		<path class="st12" d="M498.8,19.1c-1,0-1.7-0.8-1.7-1.7s0.8-1.7,1.7-1.7s1.7,0.8,1.7,1.7S499.7,19.1,498.8,19.1z"/>
	</g>
</g>
<text transform="matrix(1 0 0 1 477.8458 31.1815)" class="st24 st28">洗手間</text>
<text transform="matrix(1 0 0 1 492.7795 31.1815)" class="st24 st28">哺乳室</text>
<text transform="matrix(1 0 0 1 508.211 31.1815)" class="st24 st28">逃生梯</text>
<text transform="matrix(1 0 0 1 523.2794 31.1815)" class="st24 st28">客電梯</text>
<text transform="matrix(1 0 0 1 538.2795 31.1815)" class="st24 st28">手扶梯</text>
<text transform="matrix(1 0 0 1 553.8105 31.1815)" class="st24 st28">寄物櫃</text>
<rect x="437.4" y="153" class="st27" width="48.4" height="19.3"/>
<text transform="matrix(1 0 0 1 387.5734 118.8339)" class="st15 st16 st17">&#x98a8;&#x7345;&#x8cfc;&#x7269;&#x91cf;&#x8ca9;</text>
<text transform="matrix(0.9327 0 0 1 442.877 165.0355)" class="st15 st16 st17">&#x6703;&#x54e1;&#x670d;&#x52d9;&#x4e2d;&#x5fc3;</text>
<line class="st29" x1="101" y1="156.6" x2="101" y2="64.9"/>
<g>
	<path class="st13" d="M291.1,53.9c0,0.8-0.7,1.5-1.5,1.5h-10.9c-0.8,0-1.5-0.7-1.5-1.5V43c0-0.8,0.7-1.5,1.5-1.5h10.8
		c0.8,0,1.5,0.7,1.5,1.5L291.1,53.9L291.1,53.9z"/>
	<path class="st12" d="M287.6,52.4h-6.9c-1.1,0-1.9-0.9-1.9-1.9v-3.9c0-1.1,0.9-1.9,1.9-1.9h6.9c1.1,0,1.9,0.9,1.9,1.9v3.9
		C289.5,51.7,288.7,52.4,287.6,52.4z"/>
	<line class="st30" x1="287" y1="44.2" x2="287" y2="52.8"/>
	<line class="st30" x1="281.3" y1="44.2" x2="281.3" y2="52.8"/>
	<path class="st31" d="M284.6,45.8h-1.1c-0.5,0-1-0.4-1-1l0,0c0-0.5,0.4-1,1-1h1.1c0.5,0,1,0.4,1,1l0,0
		C285.6,45.3,285.2,45.8,284.6,45.8z"/>
</g>
<g>
	<path class="st13" d="M565.8,25.7c0,0.8-0.7,1.3-1.3,1.3h-9.8c-0.8,0-1.3-0.7-1.3-1.3v-9.8c0-0.8,0.7-1.3,1.3-1.3h9.8
		c0.8,0,1.3,0.7,1.3,1.3V25.7L565.8,25.7z"/>
	<path class="st12" d="M562.8,24.5h-6c-1,0-1.7-0.8-1.7-1.7v-3.4c0-1,0.8-1.7,1.7-1.7h6c1,0,1.7,0.8,1.7,1.7v3.4
		C564.4,23.7,563.6,24.5,562.8,24.5z"/>
	<line class="st32" x1="562.3" y1="17.1" x2="562.3" y2="24.7"/>
	<line class="st32" x1="557.1" y1="17.1" x2="557.1" y2="24.7"/>
	<path class="st33" d="M559.9,18.5h-1c-0.5,0-0.9-0.4-0.9-0.9l0,0c0-0.5,0.4-0.9,0.9-0.9h1c0.5,0,0.9,0.4,0.9,0.9l0,0
		C560.8,18.1,560.5,18.5,559.9,18.5z"/>
</g>
<text transform="matrix(0.6565 0 0 1 568.4932 31.181)" class="st24 st28">自動櫃員機</text>
<path class="st13" d="M581.2,25.7c0,0.8-0.7,1.3-1.3,1.3h-9.8c-0.8,0-1.3-0.7-1.3-1.3v-9.8c0-0.8,0.7-1.3,1.3-1.3h9.8
	c0.8,0,1.3,0.7,1.3,1.3V25.7L581.2,25.7z"/>
<g class="st34">
	<path class="st12" d="M572.6,22.5l-0.4-1h-1.7l-0.4,1h-0.4l1.4-3.4h0.4l1.4,3.4H572.6z M571.4,19.5l-0.7,1.7h1.4L571.4,19.5z"/>
	<path class="st12" d="M574.7,19.5v3.1h-0.4v-3.1h-1.2v-0.4h2.7v0.3h-1.1V19.5z"/>
	<path class="st12" d="M579.4,22.5v-2.9l-1.2,2.9h-0.4l-1.2-2.9v2.9h-0.4v-3.4h0.5l1.3,3l1.3-3h0.5v3.4H579.4z"/>
</g>
<g>
	<path class="st13" d="M226.3,69.8c0,0.8-0.7,1.3-1.3,1.3h-9.8c-0.8,0-1.3-0.7-1.3-1.3V60c0-0.8,0.7-1.3,1.3-1.3h9.8
		c0.8,0,1.3,0.7,1.3,1.3V69.8L226.3,69.8z"/>
	<text transform="matrix(1 0 0 1 214.8429 66.9109)" class="st12 st24 st35">ATM</text>
</g>
</svg>
