<?xml version="1.0" encoding="utf-8"?>
<!-- Generator: Adobe Illustrator 18.1.1, SVG Export Plug-In . SVG Version: 6.00 Build 0)  -->
<svg version="1.1" id="圖層_1" xmlns="http://www.w3.org/2000/svg" xmlns:xlink="http://www.w3.org/1999/xlink" x="0px" y="0px"
	 viewBox="15 322.9 588 151" enable-background="new 15 322.9 588 151" xml:space="preserve">
<path fill="#EFEAEA" d="M199.7,419.8v40.3H28.2v-88.9h28.6v18h28.6v-18h33.6v18h23.6v-18h57.4v40.4l22.9-0.1v-40.4h82.2v15.3h34
	v-15.3h188.9v19.4h64.8v69.6H294.9v-17h-72.5v-23.4"/>
<path fill="#D8ECE9" d="M29.4,458.6v-55.7h27.9v-12.4h29v-2.7h31.1v2.7h26.2v-17.8h23.8V388h31v70.9"/>
<path fill="#F7E8AE" d="M29.4,372.5h25.8v28.2H29.4V372.5z M86.3,372.3h31v13.5h-31V372.3z M169.3,372.4h29v13.4h-29V372.4z
	 M277.9,372.3h25.3v13.5h-25.3V372.3z M363.9,372.3h25.5v13.6h-25.5V372.3z M447.6,372.3h29.5v13.6h-29.5V372.3z M503.7,372.3h22.9
	v13.3h-22.9V372.3z M503.6,387.5h22.7v17.7h-22.7V387.5z"/>
<path fill="#F7E8AE" d="M468.9,387.7H479v-15.3h23.2v25.2h-33.3 M237.8,400.1h56.9v21.5h-56.9V400.1z"/>
<rect x="223.4" y="372.3" fill="#80E7FF" width="52.6" height="14.6"/>
<rect x="223.9" y="424.8" fill="#FFAEDC" width="82.2" height="17"/>
<path fill="#FFDEC7" d="M296.2,459.4v-16.5h10.8v-55.3h32.6v-15.3h22.7v15.3h28.8v-15.4h54.4v15.3H467v11.8h35.1v6.5h26v-14.2h63.3
	v67.8"/>
<g>
	<path fill="none" stroke="#333333" stroke-width="1.5" stroke-miterlimit="10" d="M199.7,419.8v40.3H28.2v-88.9h28.6v18h28.6v-18
		h33.6v18h23.6v-18h57.4v40.4l22.9-0.1v-40.4h82.2v15.3h34v-15.3h188.9v19.4h64.8v69.6H294.9v-17h-72.5v-23.4L199.7,419.8
		L199.7,419.8z"/>
</g>
<g>
	<path fill="none" stroke="#333333" stroke-miterlimit="10" d="M168.4,381.2v-10.2 M199.7,386.7h-31.3v-1.4 M363.1,385.4v1.3h27
		v-15.5 M363.1,371.2v10.2 M504.4,386.4h-1.6v-15.3 M527.5,386.4h-18.9 M446.7,385.4v1.4h31.2v-15.6 M446.7,371.2v10.2 M112.5,386.7
		H85 M118.6,386.7h-2 M282.6,386.7h21.6 M277.1,371.2v15.6h1.5 M467.9,386.7v11.8h34.9v6.9 M527.4,390.6v14.7 M51.9,402.1h4.5v-12.8
		 M28.3,402.1h19.6 M199.3,417.6v1.7 M199.3,411.9v1.7 M222.7,417.5v1.9 M222.7,412v1.5 M502.8,395.9v2.7 M502.8,386.6v2.8"/>
</g>
<g>
	<path fill="none" stroke="#333333" stroke-width="0.5" stroke-miterlimit="10" d="M291.8,410.2h-53.3v-9.4h55.6v2.4h-53.8"/>
	<path fill="none" stroke="#333333" stroke-width="0.5" stroke-miterlimit="10" d="M291.8,414.6h-53.3v6.7h55.6v-12.8h-53.8"/>
	<path fill="#433F3E" stroke="#FFFFFF" stroke-miterlimit="10" d="M271.5,417.4h-10.4c-0.8,0-1.4-0.6-1.4-1.4v-10.4
		c0-0.8,0.6-1.4,1.4-1.4h10.4c0.8,0,1.4,0.6,1.4,1.4V416C273,416.9,272.4,417.4,271.5,417.4L271.5,417.4z"/>
	<g>
		<circle fill="#FFFFFF" cx="265.5" cy="407.3" r="0.7"/>
		<path fill="#FFFFFF" d="M270.4,407.9h-2.5l-1.6,1.6v-0.7c0-0.5-0.5-0.8-0.8-0.8c-0.3,0-0.8,0.5-0.8,0.8v2.3l-0.8,0.8h-1.4
			c-0.9,0-1.6,0.7-1.6,1.6c0,0.9,0.7,1.6,1.6,1.6h2.7l4.1-4.1h1.2c0.9,0,1.6-0.7,1.6-1.6C272,408.6,271.3,407.9,270.4,407.9
			L270.4,407.9z M270.4,410.6H269l-4.1,4.1h-2.5c-0.6,0-1.2-0.6-1.2-1.2c0-0.7,0.6-1.2,1.2-1.2h1.6l4.1-4.1h2.2
			c0.6,0,1.2,0.6,1.2,1.2C271.4,410,271,410.6,270.4,410.6L270.4,410.6z"/>
	</g>
	<path fill="#433F3E" d="M48.1,387.9c0,0.6-0.6,1.2-1.2,1.2h-8.6c-0.6,0-1.2-0.6-1.2-1.2v-8.6c0-0.6,0.6-1.2,1.2-1.2h8.6
		c0.6,0,1.2,0.6,1.2,1.2V387.9z"/>
	<g>
		<path fill="#FFFFFF" d="M42.6,387.5v-8h-0.3v8L42.6,387.5L42.6,387.5z M40.2,380.8c0.5,0,0.6-0.3,0.6-0.6c0-0.3-0.3-0.6-0.6-0.6
			c-0.2,0-0.6,0.3-0.6,0.6C39.4,380.6,39.7,380.8,40.2,380.8L40.2,380.8z M41.6,382c0-0.6-0.6-1-1.2-1h-0.6c-0.7,0-1.2,0.5-1.2,1v2
			c0,0.2,0.1,0.3,0.3,0.3c0.2,0,0.3-0.1,0.3-0.3v-1.9c0-0.1,0.1-0.1,0.2-0.1s0.1,0.1,0.1,0.1v5.1c0,0.2,0.2,0.3,0.5,0.3
			c0.2,0,0.3-0.2,0.3-0.3v-3.1c0-0.1,0.1-0.2,0.1-0.2c0.1,0,0.2,0.1,0.2,0.2v3.1c0,0.2,0.1,0.3,0.3,0.3s0.3-0.2,0.3-0.3v-5.1
			c0-0.1,0.1-0.1,0.1-0.1c0.1,0,0.1,0.1,0.1,0.1v2c0,0.1,0.1,0.3,0.3,0.3s0.3-0.1,0.3-0.3L41.6,382L41.6,382z M44.8,380.8
			c0.5,0,0.6-0.3,0.6-0.6c0-0.3-0.3-0.6-0.6-0.6c-0.5,0-0.6,0.3-0.6,0.6C44.2,380.6,44.4,380.8,44.8,380.8L44.8,380.8z M46.5,383.3
			l-0.5-1.5c-0.2-0.5-0.6-0.8-1-0.9h-0.6c-0.6,0-0.9,0.5-1,0.9l-0.5,1.5v0.1c0,0.2,0.1,0.3,0.3,0.3c0.1,0,0.2-0.1,0.3-0.2l0.5-1.3
			c0-0.1,0.1-0.1,0.1-0.1c0.1,0,0.1,0.1,0.1,0.1s0,0,0,0.1l-0.8,2.7c0,0.1,0,0.2,0.2,0.2h0.6v2c0,0.2,0.1,0.3,0.3,0.3
			s0.3-0.1,0.3-0.3v-2h0.3v2c0,0.2,0.1,0.3,0.3,0.3s0.3-0.1,0.3-0.3v-2h0.6c0.1,0,0.2-0.1,0.2-0.2l-0.8-2.7c0,0,0,0,0-0.1
			c0-0.1,0.1-0.1,0.1-0.1c0.1,0,0.1,0,0.1,0.1l0.5,1.3c0,0.1,0.1,0.2,0.3,0.2C46.5,383.7,46.5,383.5,46.5,383.3
			C46.5,383.4,46.5,383.3,46.5,383.3L46.5,383.3z"/>
	</g>
	<path fill="#433F3E" d="M495.2,389.5c0,0.6-0.6,1.2-1.2,1.2h-8.5c-0.6,0-1.2-0.6-1.2-1.2v-8.6c0-0.6,0.6-1.2,1.2-1.2h8.6
		c0.6,0,1.2,0.6,1.2,1.2L495.2,389.5L495.2,389.5z"/>
	<g>
		<path fill="#FFFFFF" d="M489.9,389.3v-8h-0.3v8L489.9,389.3L489.9,389.3z M487.3,382.6c0.5,0,0.6-0.3,0.6-0.6
			c0-0.3-0.3-0.6-0.6-0.6s-0.6,0.3-0.6,0.6C486.8,382.3,487,382.6,487.3,382.6L487.3,382.6z M488.8,383.7c0-0.6-0.6-1-1.2-1h-0.6
			c-0.6,0-1.2,0.5-1.2,1v2c0,0.1,0.1,0.3,0.3,0.3c0.2,0,0.3-0.1,0.3-0.3v-1.9c0-0.1,0.1-0.1,0.2-0.1c0.1,0,0.1,0.1,0.1,0.1v5.1
			c0,0.2,0.2,0.3,0.3,0.3c0.1,0,0.3-0.2,0.3-0.3v-3.1c0-0.1,0.1-0.2,0.1-0.2c0.1,0,0.2,0.1,0.2,0.2v3.1c0,0.2,0.1,0.3,0.3,0.3
			s0.3-0.2,0.3-0.3v-5.1c0-0.1,0.1-0.1,0.1-0.1c0.1,0,0.1,0.1,0.1,0.1v1.9c0,0.1,0.1,0.3,0.3,0.3s0.3-0.1,0.3-0.3L488.8,383.7
			L488.8,383.7z M492.1,382.6c0.5,0,0.6-0.3,0.6-0.6c0-0.3-0.3-0.6-0.6-0.6c-0.5,0-0.6,0.3-0.6,0.6S491.6,382.6,492.1,382.6
			L492.1,382.6z M493.8,385.1l-0.5-1.5c-0.2-0.5-0.6-0.8-1-0.8h-0.6c-0.6,0-0.9,0.5-1,0.8l-0.5,1.5v0.1c0,0.2,0.1,0.3,0.3,0.3
			c0.1,0,0.2-0.1,0.3-0.2l0.5-1.3c0-0.1,0.1-0.1,0.1-0.1c0.1,0,0.1,0.1,0.1,0.1s0,0,0,0.1l-0.8,2.7c0,0.1,0,0.2,0.2,0.2h0.6v2
			c0,0.2,0.1,0.3,0.3,0.3c0.2,0,0.3-0.1,0.3-0.3v-2h0.3v2c0,0.2,0.1,0.3,0.3,0.3c0.2,0,0.3-0.1,0.3-0.3v-2h0.6
			c0.1,0,0.2-0.1,0.2-0.2l-0.8-2.7c0,0,0,0,0-0.1c0-0.1,0.1-0.1,0.1-0.1c0.1,0,0.1,0,0.1,0.1l0.5,1.3c0,0.1,0.1,0.2,0.3,0.2
			C493.7,385.4,493.8,385.3,493.8,385.1L493.8,385.1L493.8,385.1z"/>
	</g>
	<path fill="#433F3E" d="M188.9,382.9c0,0.6-0.6,1.2-1.2,1.2h-8.6c-0.6,0-1.2-0.6-1.2-1.2v-8.6c0-0.6,0.6-1.2,1.2-1.2h8.6
		c0.6,0,1.2,0.6,1.2,1.2V382.9z"/>
	<g>
		<path fill="#FFFFFF" d="M180.8,378.3L180.8,378.3c0.2,0,0.3-0.1,0.3-0.3l0.1-1l0.6-0.5v1.4c0,0.1,0,0.2,0.1,0.2l-0.6,2.5
			c0,0.2,0.1,0.5,0.3,0.5h0.1c0.2,0,0.3-0.1,0.5-0.3l0.6-2.3l0.6,0.3l-0.1,0.8c0,0.2,0.1,0.5,0.3,0.5l0,0c0.2,0,0.5-0.2,0.5-0.5
			l0.1-1c0-0.2-0.1-0.3-0.2-0.5l-0.9-0.5v-1l0.5,0.5c0.1,0.1,0.1,0.1,0.2,0.1l0.9,0.1l0,0c0.2,0,0.3-0.1,0.3-0.3
			c0-0.2-0.1-0.3-0.3-0.3l-0.9-0.1l-0.7-0.8c0-0.1-0.1-0.1-0.1-0.2c0-0.2-0.2-0.3-0.5-0.3c-0.1,0-0.2,0.1-0.3,0.2l-1.2,0.8
			c-0.1,0.1-0.1,0.1-0.1,0.2l-0.1,1.2C180.5,378.1,180.7,378.3,180.8,378.3L180.8,378.3z"/>
		<circle fill="#FFFFFF" cx="182.4" cy="375.1" r="0.7"/>
	</g>
	<path fill="#FFFFFF" d="M179.7,382.4h1.4v-1.2h1.4V380h1.4v-1.1h1.4v-1.2h2v0.7H186v1.1h-1.4v1.2h-1.5v1.2h-1.4v1.2h-2v-0.7H179.7z
		"/>
	<path fill="#433F3E" d="M297.1,383.5c0,0.6-0.6,1.2-1.2,1.2h-8.6c-0.6,0-1.2-0.6-1.2-1.2V375c0-0.6,0.6-1.2,1.2-1.2h8.6
		c0.6,0,1.2,0.6,1.2,1.2V383.5z"/>
	<g>
		<path fill="#FFFFFF" d="M288.8,378.8L288.8,378.8c0.2,0,0.3-0.1,0.3-0.3l0.1-1l0.6-0.5v1.4c0,0.1,0,0.2,0.1,0.2l-0.6,2.5
			c0,0.2,0.1,0.5,0.3,0.5h0.1c0.2,0,0.3-0.1,0.5-0.3l0.6-2.3l0.6,0.3l-0.1,0.8c0,0.2,0.1,0.5,0.3,0.5l0,0c0.2,0,0.5-0.2,0.5-0.5
			l0.1-1c0-0.1-0.1-0.3-0.2-0.5l-0.9-0.5v-1l0.5,0.5c0,0.1,0.1,0.1,0.2,0.1l1,0.1l0,0c0.2,0,0.3-0.1,0.3-0.3c0-0.2-0.1-0.3-0.3-0.3
			l-0.9-0.1l-0.7-0.8c0-0.1-0.1-0.1-0.1-0.2c0-0.2-0.2-0.3-0.5-0.3c-0.1,0-0.2,0.1-0.3,0.2l-1.2,0.8c-0.1,0.1-0.1,0.1-0.1,0.2
			l-0.1,1.2C288.7,378.6,288.7,378.8,288.8,378.8L288.8,378.8z"/>
		<circle fill="#FFFFFF" cx="290.6" cy="375.5" r="0.7"/>
	</g>
	<path fill="#FFFFFF" d="M287.8,382.9h1.4v-1.2h1.4v-1.2h1.4v-1.2h1.4v-1.1h2v0.7h-1.4v1.1h-1.4v1.2h-1.4v1.2h-1.4v1.2h-2V382.9
		L287.8,382.9z"/>
	<g>
		<path fill="#433F3E" d="M108,382.9c0,0.6-0.6,1.2-1.2,1.2h-8.6c-0.6,0-1.2-0.6-1.2-1.2v-8.6c0-0.6,0.6-1.2,1.2-1.2h8.6
			c0.6,0,1.2,0.6,1.2,1.2V382.9z"/>
		<g>
			<path fill="#FFFFFF" d="M99.8,378.3L99.8,378.3c0.2,0,0.3-0.1,0.3-0.3l0.1-1l0.6-0.5v1.4c0,0.1,0,0.2,0.1,0.2l-0.6,2.5
				c-0.1,0.2,0.1,0.5,0.3,0.5h0.1c0.2,0,0.3-0.1,0.5-0.3l0.6-2.3l0.6,0.3l-0.1,0.8c0,0.2,0.1,0.5,0.3,0.5l0,0c0.2,0,0.5-0.2,0.5-0.5
				l0.1-1c0-0.2-0.1-0.3-0.2-0.5l-0.9-0.5v-1l0.5,0.5c0.1,0.1,0.1,0.1,0.2,0.1l1,0.1l0,0c0.2,0,0.3-0.1,0.3-0.3
				c0-0.2-0.1-0.3-0.3-0.3l-0.9-0.1l-0.7-0.8c0-0.1-0.1-0.1-0.1-0.2c0-0.2-0.2-0.3-0.5-0.3c-0.1,0-0.2,0.1-0.3,0.2l-1.2,0.8
				c-0.1,0.1-0.1,0.1-0.1,0.2l-0.1,1.2C99.6,378.1,99.7,378.3,99.8,378.3L99.8,378.3z"/>
			<circle fill="#FFFFFF" cx="101.5" cy="375.1" r="0.7"/>
		</g>
		<path fill="#FFFFFF" d="M98.8,382.4h1.4v-1.2h1.4V380h1.4v-1.1h1.4v-1.2h2v0.7h-1.4v1.1h-1.3v1.2h-1.4v1.2h-1.4v1.2h-2.2
			L98.8,382.4L98.8,382.4z"/>
	</g>
	<g>
		<path fill="#433F3E" d="M382,382.9c0,0.6-0.6,1.2-1.2,1.2h-8.6c-0.6,0-1.2-0.6-1.2-1.2v-8.6c0-0.6,0.6-1.2,1.2-1.2h8.6
			c0.6,0,1.2,0.6,1.2,1.2V382.9L382,382.9z"/>
		<g>
			<path fill="#FFFFFF" d="M373.9,378.3L373.9,378.3c0.2,0,0.3-0.1,0.3-0.3l0.1-1l0.6-0.5v1.4c0,0.1,0,0.2,0.1,0.2l-0.6,2.5
				c0,0.2,0.1,0.5,0.3,0.5h0.1c0.2,0,0.3-0.1,0.5-0.3l0.6-2.3l0.6,0.3l-0.1,0.8c0,0.2,0.1,0.5,0.3,0.5l0,0c0.2,0,0.5-0.2,0.5-0.5
				l0.1-1c0-0.2-0.1-0.3-0.2-0.5l-0.9-0.5v-1l0.5,0.5c0,0.1,0.1,0.1,0.2,0.1l1,0.1l0,0c0.2,0,0.3-0.1,0.3-0.3c0-0.2-0.1-0.3-0.3-0.3
				l-0.9-0.1l-0.7-0.8c0-0.1-0.1-0.1-0.1-0.2c0-0.2-0.2-0.3-0.5-0.3c-0.1,0-0.2,0.1-0.3,0.2l-1.2,0.8c-0.1,0.1-0.1,0.1-0.1,0.2
				l-0.1,1.2C373.6,378.1,373.7,378.3,373.9,378.3L373.9,378.3z"/>
			<circle fill="#FFFFFF" cx="375.5" cy="375.1" r="0.7"/>
		</g>
		<path fill="#FFFFFF" d="M372.8,382.4h1.4v-1.2h1.4V380h1.4v-1.1h1.4v-1.2h2v0.7h-1.4v1.1h-1.4v1.2h-1.4v1.2h-1.4v1.2h-2V382.4
			L372.8,382.4z"/>
	</g>
	<g>
		<path fill="#433F3E" d="M467.5,382.9c0,0.6-0.6,1.2-1.2,1.2h-8.5c-0.6,0-1.2-0.6-1.2-1.2v-8.6c0-0.6,0.6-1.2,1.2-1.2h8.6
			c0.6,0,1.2,0.6,1.2,1.2L467.5,382.9L467.5,382.9z"/>
		<g>
			<path fill="#FFFFFF" d="M459.4,378.3L459.4,378.3c0.2,0,0.3-0.1,0.3-0.3l0.1-1l0.6-0.5v1.4c0,0.1,0,0.2,0.1,0.2l-0.6,2.5
				c0,0.2,0.1,0.5,0.3,0.5h0.1c0.2,0,0.3-0.1,0.5-0.3l0.6-2.3l0.6,0.3l-0.1,0.8c0,0.2,0.1,0.5,0.3,0.5l0,0c0.2,0,0.5-0.2,0.5-0.5
				l0.1-1c0-0.2-0.1-0.3-0.2-0.5l-0.9-0.5v-1l0.5,0.5c0,0.1,0.1,0.1,0.2,0.1l0.9,0.1l0,0c0.2,0,0.3-0.1,0.3-0.3
				c0-0.2-0.1-0.3-0.3-0.3l-1.1,0.1l-0.6-0.8c0-0.1-0.1-0.1-0.1-0.2c0-0.2-0.2-0.3-0.5-0.3c-0.1,0-0.2,0.1-0.3,0.2l-1.2,0.8
				c-0.1,0.1-0.1,0.1-0.1,0.2l-0.1,1.2C459.1,378.1,459.3,378.3,459.4,378.3L459.4,378.3z"/>
			<circle fill="#FFFFFF" cx="461.1" cy="375.1" r="0.7"/>
		</g>
		<path fill="#FFFFFF" d="M458.2,382.4h1.4v-1.2h1.4V380h1.4v-1.1h1.4v-1.2h2v0.7h-1.4v1.1h-1.4v1.2h-1.3v1.2h-1.4v1.2h-2
			L458.2,382.4L458.2,382.4z"/>
	</g>
	<g>
		<path fill="#433F3E" d="M520.9,382.9c0,0.6-0.6,1.2-1.2,1.2h-8.6c-0.6,0-1.2-0.6-1.2-1.2v-8.6c0-0.6,0.6-1.2,1.2-1.2h8.6
			c0.6,0,1.2,0.6,1.2,1.2V382.9z"/>
		<g>
			<path fill="#FFFFFF" d="M512.9,378.3L512.9,378.3c0.2,0,0.3-0.1,0.3-0.3l0.1-1l0.6-0.5v1.4c0,0.1,0,0.2,0.1,0.2l-0.6,2.5
				c0,0.2,0.1,0.5,0.3,0.5h0.1c0.2,0,0.3-0.1,0.5-0.3l0.6-2.3l0.6,0.3l-0.1,0.8c0,0.2,0.1,0.5,0.3,0.5l0,0c0.2,0,0.5-0.2,0.5-0.5
				l0.1-1c0-0.2-0.1-0.3-0.2-0.5l-0.9-0.5v-1l0.5,0.5c0,0.1,0.1,0.1,0.2,0.1l1,0.1l0,0c0.2,0,0.3-0.1,0.3-0.3c0-0.2-0.1-0.3-0.3-0.3
				l-0.9-0.1l-0.7-0.8c0-0.1-0.1-0.1-0.1-0.2c0-0.2-0.2-0.3-0.5-0.3c-0.1,0-0.2,0.1-0.3,0.2l-1.2,0.8c-0.1,0.1-0.1,0.1-0.1,0.2
				l-0.1,1.2C512.6,378.1,512.9,378.3,512.9,378.3L512.9,378.3z"/>
			<circle fill="#FFFFFF" cx="514.5" cy="375.1" r="0.7"/>
		</g>
		<path fill="#FFFFFF" d="M511.8,382.4h1.4v-1.2h1.4V380h1.4v-1.1h1.4v-1.2h2v0.7h-1.4v1.1h-1.5v1.2h-1.4v1.2h-1.4v1.2h-2v-0.7
			H511.8z"/>
	</g>
	<g>
		<path fill="#433F3E" d="M520.9,397.6c0,0.6-0.6,1.2-1.2,1.2h-8.6c-0.6,0-1.2-0.6-1.2-1.2V389c0-0.6,0.6-1.2,1.2-1.2h8.6
			c0.6,0,1.2,0.6,1.2,1.2V397.6L520.9,397.6z"/>
		<path fill="#FFFFFF" d="M518.5,391.7h-5.9c-0.2,0-0.3,0.1-0.3,0.3v5.3c0,0.2,0.1,0.3,0.3,0.3h5.9c0.2,0,0.3-0.1,0.3-0.3V392
			C518.7,391.8,518.6,391.7,518.5,391.7L518.5,391.7z M518.4,397.1h-5.5v-5h5.5V397.1L518.4,397.1z"/>
		<circle fill="#FFFFFF" cx="514" cy="392.9" r="0.5"/>
		<path fill="#FFFFFF" d="M514,393.5c-0.5,0-0.6,0.3-0.6,0.6v1.2c0,0.1,0.1,0.2,0.2,0.2s0.2,0,0.2,0v1.3c0,0.1,0.1,0.2,0.2,0.2h0.3
			c0.1,0,0.2-0.1,0.2-0.2v-1.3c0,0,0.1,0,0.2,0c0.1,0,0.2-0.1,0.2-0.2v-1.2C514.6,393.6,514.4,393.5,514,393.5L514,393.5z"/>
		<circle fill="#FFFFFF" cx="515.6" cy="392.9" r="0.5"/>
		<path fill="#FFFFFF" d="M515.6,393.5c-0.5,0-0.6,0.3-0.6,0.6v1.2c0,0.1,0.1,0.2,0.2,0.2c0.1,0,0.2,0,0.2,0v1.3
			c0,0.1,0.1,0.2,0.2,0.2h0.3c0.1,0,0.2-0.1,0.2-0.2v-1.3c0,0,0.1,0,0.2,0s0.2-0.1,0.2-0.2v-1.2C516.2,393.6,516,393.5,515.6,393.5
			L515.6,393.5z"/>
		<g>
			<circle fill="#FFFFFF" cx="517.2" cy="392.9" r="0.5"/>
			<path fill="#FFFFFF" d="M517.2,393.5c-0.5,0-0.6,0.3-0.6,0.6v1.2c0,0.1,0.1,0.2,0.2,0.2s0.2,0,0.2,0v1.3c0,0.1,0.1,0.2,0.2,0.2
				h0.3c0.1,0,0.2-0.1,0.2-0.2v-1.3c0,0,0.1,0,0.2,0c0.1,0,0.2-0.1,0.2-0.2v-1.2C517.7,393.6,517.5,393.5,517.2,393.5L517.2,393.5z"
				/>
		</g>
		<g>
			<path fill="#FFFFFF" d="M518.4,389.7c0,0-0.1,0-0.2,0l-0.8,0.7v-1.4v-0.1c-0.1-0.2-0.5-0.2-0.5,0v0.1v1.4l-0.8-0.7h-0.1l-0.1,0.1
				v0.5v0.1l1.2,1.1h0.1h0.1l1.2-1.1v-0.1L518.4,389.7C518.4,389.8,518.4,389.7,518.4,389.7L518.4,389.7z M514.3,388.9
				C514.3,388.8,514.3,388.8,514.3,388.9c-0.1,0-0.2,0-0.2,0l-1.2,1.1v0.1v0.5c0,0.1,0,0.1,0.1,0.1c0,0,0.1,0,0.2,0l0.8-0.7v1.4v0.1
				c0.1,0.1,0.2,0.1,0.3,0.1c0.1,0,0.2,0,0.3-0.1v-0.1V390l0.8,0.7c0,0,0.1,0,0.2,0s0.1-0.1,0.1-0.1v-0.5V390L514.3,388.9
				L514.3,388.9z"/>
		</g>
	</g>
</g>
<text transform="matrix(1 0 0 1 227.9641 381.2796)" fill="#333333" font-family="'MicrosoftSansSerif'" font-size="5.0922">&#x98a8;&#x7345;&#x723a;&#x7f8e;&#x98df;&#x5ee3;&#x5834;</text>
<text transform="matrix(1 0 0 1 251.5536 435.4807)" fill="#333333" font-family="'MicrosoftSansSerif'" font-size="5.0922">&#x9ec3;&#x91d1;&#x535a;&#x7269;&#x9928;</text>
<text transform="matrix(1 0 0 1 430.2537 429.3615)" fill="#333333" font-family="'MicrosoftSansSerif'" font-size="7.1291">&#x7dba;&#x9e97;&#x73ca;&#x745a;</text>
<text transform="matrix(1 0 0 1 76.74 424.9886)" fill="#333333" font-family="'MicrosoftSansSerif'" font-size="7.1291">&#x7dba;&#x9e97;&#x73ca;&#x745a;&#x9ec3;&#x91d1;&#x947d;&#x77f3;&#x9928;</text>
<g>
	<path fill="none" stroke="#333333" stroke-width="0.25" stroke-miterlimit="10" d="M47.7,401.8c0-2.5,1.9-4.3,4.3-4.3"/>
	<path fill="none" stroke="#333333" stroke-width="0.5" stroke-miterlimit="10" d="M52,397.4v4.4"/>
	<path fill="none" stroke="#333333" stroke-width="0.25" stroke-miterlimit="10" d="M282.7,386.7c0-2.5-1.9-4.3-4.3-4.3"/>
	<path fill="none" stroke="#333333" stroke-width="0.5" stroke-miterlimit="10" d="M278.4,382.3v4.4"/>
	<path fill="none" stroke="#333333" stroke-width="0.25" stroke-miterlimit="10" d="M112.3,386.9c0-2.5,1.9-4.3,4.3-4.3"/>
	<path fill="none" stroke="#333333" stroke-width="0.5" stroke-miterlimit="10" d="M116.7,382.5v4.4"/>
	<path fill="none" stroke="#333333" stroke-width="0.25" stroke-miterlimit="10" d="M168.3,381.1c2.5,0,4.3,1.9,4.3,4.3"/>
	<path fill="none" stroke="#333333" stroke-width="0.5" stroke-miterlimit="10" d="M172.7,385.6h-4.4"/>
	<path fill="none" stroke="#333333" stroke-width="0.25" stroke-miterlimit="10" d="M222.7,413.3c2.5,0,4.3,1.9,4.3,4.3"/>
	<path fill="none" stroke="#333333" stroke-width="0.5" stroke-miterlimit="10" d="M227.2,417.8h-4.5"/>
	<g>
		<path fill="none" stroke="#333333" stroke-width="0.25" stroke-miterlimit="10" d="M363.2,381.1c2.5,0,4.3,1.9,4.3,4.3"/>
		<path fill="none" stroke="#333333" stroke-width="0.5" stroke-miterlimit="10" d="M367.8,385.6h-4.5"/>
	</g>
	<g>
		<path fill="none" stroke="#333333" stroke-width="0.25" stroke-miterlimit="10" d="M446.7,381.1c2.5,0,4.3,1.9,4.3,4.3"/>
		<path fill="none" stroke="#333333" stroke-width="0.5" stroke-miterlimit="10" d="M451.2,385.6h-4.5"/>
	</g>
	<g>
		<path fill="none" stroke="#333333" stroke-width="0.25" stroke-miterlimit="10" d="M508.6,386.6c0-2.5-1.9-4.3-4.3-4.3"/>
		<path fill="none" stroke="#333333" stroke-width="0.5" stroke-miterlimit="10" d="M504.2,382.1v4.4"/>
	</g>
	<g>
		<path fill="none" stroke="#333333" stroke-width="0.25" stroke-miterlimit="10" d="M199.8,417.8c-2.5,0-4.3-1.9-4.3-4.3"/>
		<path fill="none" stroke="#333333" stroke-width="0.5" stroke-miterlimit="10" d="M195.3,413.3h4.4"/>
	</g>
</g>
<rect x="28.7" y="347.2" fill="#D8ECE9" width="6.7" height="6.7"/>
<text transform="matrix(1 0 0 1 40.4914 354.8968)" font-family="'DFHeiStd-W5-B5pc-H'" font-size="8.7021">綺麗珊瑚黃金鑽石館</text>
<rect x="131" y="347.2" fill="#80E7FF" width="6.7" height="6.7"/>
<text transform="matrix(1 0 0 1 142.6308 353.8527)" font-family="'DFHeiStd-W5-B5pc-H'" font-size="8.7021">風獅爺美食廣場</text>
<rect x="215.5" y="347.2" fill="#FFAEDC" width="6.7" height="6.7"/>
<text transform="matrix(1 0 0 1 227.0335 353.8527)" font-family="'DFHeiStd-W5-B5pc-H'" font-size="8.7021">黃金博物館</text>
<rect x="282" y="347.2" fill="#FFDEC7" width="6.7" height="6.7"/>
<text transform="matrix(1 0 0 1 293.8664 354.8968)" font-family="'DFHeiStd-W5-B5pc-H'" font-size="8.7021">綺麗珊瑚</text>
<g>
	<path fill="#433F3E" d="M590,354.4h-16.5c-1.2,0-2.2-0.8-2.2-2.2v-16.3c0-1.2,0.8-2.2,2.2-2.2H590c1.2,0,2.2,0.8,2.2,2.2v16.5
		C592.3,353.3,591.3,354.4,590,354.4L590,354.4z"/>
	<g>
		<circle fill="#FFFFFF" cx="580.3" cy="338.2" r="1"/>
		<path fill="#FFFFFF" d="M588.2,339.4h-3.9l-2.6,2.6v-1c0-0.8-0.6-1.2-1.2-1.2c-0.8,0-1.2,0.6-1.2,1.2v3.7L578,346h-2.2
			c-1.4,0-2.4,1-2.4,2.4s1,2.4,2.4,2.4h4.1l6.5-6.5h1.8c1.4,0,2.4-1,2.4-2.4C590.5,340.2,589.6,339.4,588.2,339.4L588.2,339.4z
			 M588.2,343.5H586l-6.5,6.5h-3.9c-0.8,0-1.8-0.8-1.8-1.8c0-1,0.8-1.8,1.8-1.8h2.4l6.5-6.5h3.5c0.8,0,1.8,0.8,1.8,1.8
			C590,342.5,589,343.5,588.2,343.5L588.2,343.5z"/>
	</g>
</g>
<g>
	<path fill="#433F3E" d="M567,352.5c0,1.2-1,2.2-2.2,2.2h-16.3c-1.2,0-2.2-1-2.2-2.2V336c0-1.2,1-2.2,2.2-2.2h16.5
		c1.2,0,2.2,1,2.2,2.2L567,352.5L567,352.5z"/>
	<path fill="#FFFFFF" d="M562.3,341.1h-11.2c-0.4,0-0.6,0.2-0.6,0.6v10.2c0,0.4,0.2,0.6,0.6,0.6h11.2c0.4,0,0.6-0.2,0.6-0.6v-10.4
		C562.5,341.3,562.5,341.1,562.3,341.1L562.3,341.1z M561.9,351.5h-10.6v-9.6h10.6V351.5L561.9,351.5z"/>
	<circle fill="#FFFFFF" cx="553.3" cy="343.3" r="0.8"/>
	<path fill="#FFFFFF" d="M553.3,344.1c-0.8,0-1.2,0.6-1.2,1.2v2.2c0,0.2,0.2,0.4,0.4,0.4s0.4,0,0.4,0v2.4c0,0.2,0.2,0.4,0.4,0.4h0.6
		c0.2,0,0.4-0.2,0.4-0.4V348c0,0,0.2,0,0.4,0c0.2,0,0.4-0.2,0.4-0.4v-2.2C554.8,344.9,554.1,344.1,553.3,344.1L553.3,344.1z"/>
	<circle fill="#FFFFFF" cx="556.6" cy="343.3" r="0.8"/>
	<path fill="#FFFFFF" d="M556.6,344.1c-0.8,0-1.2,0.6-1.2,1.2v2.2c0,0.2,0.2,0.4,0.4,0.4s0.4,0,0.4,0v2.4c0,0.2,0.2,0.4,0.4,0.4h0.6
		c0.2,0,0.4-0.2,0.4-0.4V348c0,0,0.2,0,0.4,0c0.2,0,0.4-0.2,0.4-0.4v-2.2C557.6,344.9,557.2,344.1,556.6,344.1L556.6,344.1z"/>
	<g>
		<circle fill="#FFFFFF" cx="559.4" cy="343.3" r="0.8"/>
		<path fill="#FFFFFF" d="M559.4,344.1c-0.8,0-1.2,0.6-1.2,1.2v2.2c0,0.2,0.2,0.4,0.4,0.4c0.2,0,0.4,0,0.4,0v2.4
			c0,0.2,0.2,0.4,0.4,0.4h0.6c0.2,0,0.4-0.2,0.4-0.4V348c0,0,0.2,0,0.4,0c0.2,0,0.4-0.2,0.4-0.4v-2.2
			C560.9,344.9,560.5,344.1,559.4,344.1L559.4,344.1z"/>
	</g>
	<g>
		<path fill="#FFFFFF" d="M561.7,337.2c0,0-0.2,0-0.4,0l-1.4,1.4V336v-0.2c-0.2-0.4-0.8-0.4-0.8,0v0.2v2.6l-1.4-1.4h-0.2l-0.2,0.2
			v0.8v0.2l2.2,2h0.2h0.2l2.2-2v-0.2L561.7,337.2C561.9,337.4,561.9,337.2,561.7,337.2L561.7,337.2z M553.7,335.8
			C553.7,335.6,553.7,335.6,553.7,335.8c-0.2,0-0.4,0-0.4,0l-2.2,2v0.2v0.8c0,0.2,0,0.2,0.2,0.2c0,0,0.2,0,0.4,0l1.4-1.4v2.6v0.2
			c0.2,0.2,0.4,0.2,0.6,0.2s0.4,0,0.6-0.2v-0.2v-2.6l1.4,1.4c0,0,0.2,0,0.4,0c0.2,0,0.2-0.2,0.2-0.2V338v-0.2L553.7,335.8
			L553.7,335.8z"/>
	</g>
</g>
<g>
	<path fill="#828282" d="M541.5,352.5c0,1.2-1,2.2-2.2,2.2h-16.5c-1.2,0-2.2-1-2.2-2.2V336c0-1.2,1-2.2,2.2-2.2h16.5
		c1.2,0,2.2,1,2.2,2.2L541.5,352.5L541.5,352.5z"/>
	<g>
		<path fill="#FFFFFF" d="M525.8,343.5L525.8,343.5c0.4,0,0.6-0.2,0.6-0.6l0.2-1.8l1-0.8v2.6c0,0.2,0,0.4,0.2,0.4l-1.2,4.7
			c-0.2,0.4,0.2,0.8,0.6,0.8h0.2c0.4,0,0.6-0.2,0.8-0.6l1-4.3l1.2,0.6l-0.2,1.4c0,0.4,0.2,0.8,0.6,0.8l0,0c0.4,0,0.8-0.4,0.8-0.8
			l0.2-1.8c0-0.4-0.2-0.6-0.4-0.8l-1.6-0.8v-1.8l0.8,0.8c0.2,0.2,0.2,0.2,0.4,0.2l1.8,0.2l0,0c0.4,0,0.6-0.2,0.6-0.6
			s-0.2-0.6-0.6-0.6l-1.6-0.2l-1.4-1.4c0-0.2-0.2-0.2-0.2-0.4c0-0.4-0.4-0.6-0.8-0.6c-0.2,0-0.4,0.2-0.6,0.4l-2.2,1.4
			c-0.2,0.2-0.2,0.2-0.2,0.4l-0.2,2.2C525.2,343.1,525.6,343.5,525.8,343.5L525.8,343.5z"/>
		<circle fill="#FFFFFF" cx="529" cy="337.2" r="1.4"/>
	</g>
	<path fill="#FFFFFF" d="M523.7,351.3h2.6v-2.2h2.6v-2h2.6v-2h2.6v-2.2h4.1v1.4h-2.6v2h-2.6v2.2h-2.6v2.2h-2.6v2.2h-4.1V351.3
		L523.7,351.3L523.7,351.3z"/>
</g>
<text transform="matrix(1 0 0 1 495.8649 361.5862)" font-family="'DFHeiStd-W5-B5pc-H'" font-size="6.5505">洗手間</text>
<text transform="matrix(1 0 0 1 521.4413 361.5862)" font-family="'DFHeiStd-W5-B5pc-H'" font-size="6.5505">逃生梯</text>
<text transform="matrix(1 0 0 1 546.7644 361.5862)" font-family="'DFHeiStd-W5-B5pc-H'" font-size="6.5505">客電梯</text>
<text transform="matrix(1 0 0 1 571.9744 361.5862)" font-family="'DFHeiStd-W5-B5pc-H'" font-size="6.5505">手扶梯</text>
<g>
	<path fill="#433F3E" d="M516,352.8c0,1.4-1.1,2.1-2.1,2.1H497c-1.4,0-2.1-1.1-2.1-2.1v-16.9c0-1.4,1.1-2.1,2.1-2.1h16.9
		c1.4,0,2.1,1.1,2.1,2.1V352.8z"/>
	<polygon fill="#FFFFFF" points="505.3,352.1 505.3,336.2 504.8,336.2 504.8,352.1 	"/>
	<path fill="#FFFFFF" d="M500.5,338.9c0.7,0,1.4-0.5,1.4-1.4c0-0.7-0.5-1.4-1.4-1.4c-0.7,0-1.4,0.5-1.4,1.4
		C499,338.4,499.8,338.9,500.5,338.9L500.5,338.9z"/>
	<path fill="#FFFFFF" d="M509.8,338.9c0.7,0,1.4-0.5,1.4-1.4c0-0.7-0.5-1.4-1.4-1.4c-0.7,0-1.4,0.5-1.4,1.4
		C508.4,338.5,508.9,338.9,509.8,338.9L509.8,338.9z"/>
	<path fill="#FFFFFF" d="M513,343.9l-0.8-2.9c-0.4-0.8-1.1-1.5-1.8-1.7h-1.1c-1.1,0-1.7,0.7-1.8,1.7l-0.8,2.9v0.1
		c0,0.4,0.1,0.5,0.5,0.5c0.1,0,0.4-0.1,0.5-0.4l0.7-2.5c0-0.1,0.1-0.1,0.1-0.1c0.1,0,0.1,0.1,0.1,0.1s0,0,0,0.1l-1.4,5.5
		c0,0.1,0,0.4,0.4,0.4h1.4v4.2c0,0.4,0.1,0.5,0.5,0.5c0.4,0,0.5-0.1,0.5-0.5v-4.2h0.5v4.2c0,0.4,0.1,0.5,0.5,0.5
		c0.4,0,0.5-0.1,0.5-0.5v-4.2h1.4c0.1,0,0.4-0.1,0.4-0.4l-1.5-5.4c0,0,0,0,0-0.1c0-0.1,0.1-0.1,0.1-0.1c0.1,0,0.1,0,0.1,0.1l0.8,2.5
		c0,0.1,0.1,0.4,0.5,0.4C512.9,344.5,513,344.3,513,343.9C513,344.2,513,343.9,513,343.9L513,343.9z"/>
	<path fill="#FFFFFF" d="M500.9,339.7h-0.3l0,0h-0.4c-1.5,0-2.4,0.8-2.4,1.8v4.2c0,0.4,0.1,0.5,0.5,0.5c0.4,0,0.5-0.1,0.5-0.5v-4.1
		c0-0.1,0.1-0.1,0.4-0.1c0.1,0,0.1,0.1,0.1,0.1v10.1c0,0.4,0.4,0.5,0.7,0.5c0.3,0,0.5-0.4,0.5-0.5v-6.1c0-0.1,0.1-0.4,0.1-0.4
		s0.1,0,0.2,0l0,0l0,0l0,0c0,0,0.1,0.2,0.1,0.4v6.1c0,0.1,0.1,0.5,0.5,0.5s0.7-0.1,0.7-0.5v-10.1c0,0,0-0.1,0.1-0.1
		c0.3,0,0.4,0,0.4,0.1v4.1c0,0.4,0.1,0.5,0.5,0.5c0.4,0,0.5-0.1,0.5-0.5v-4.2C503.3,340.6,502.4,339.7,500.9,339.7z"/>
</g>
</svg>
